<svg xmlns="http://www.w3.org/2000/svg" viewBox="0 0 556.7 211.1"><defs><style>.cls-1{fill:#f7941e;}.cls-2{fill:#f4ba27;}.cls-3{fill:#663812;}</style></defs><g id="Layer_2" data-name="Layer 2"><g id="icons"><path class="cls-1" d="M438.8,175.1a6.7,6.7,0,0,1-1.4-4.3,11.2,11.2,0,0,1,.7-4,10.3,10.3,0,0,1,1.7-3.3,2.9,2.9,0,0,1,2.1-1.4,10.6,10.6,0,0,1,1.7-4.2,10.4,10.4,0,0,1,3.3-3.3,7.7,7.7,0,0,1,4.5-1.3h.8a4.7,4.7,0,0,1,3.5,1.7,5.4,5.4,0,0,1,1.1,3.7,16.8,16.8,0,0,1-2.2,7.7,24,24,0,0,1-5.4,7.4c-2.2,2-4.2,3-6.1,3A5.2,5.2,0,0,1,438.8,175.1Zm9.3-3.1a27.7,27.7,0,0,0,4.7-6.7,16.8,16.8,0,0,0,1.9-6.6,3.6,3.6,0,0,0-.6-2.2,2,2,0,0,0-1.6-1l-1.2-.2a6.5,6.5,0,0,0-4,1.4,8.9,8.9,0,0,0-2.8,3.7,11.9,11.9,0,0,0-1,5.1,17.3,17.3,0,0,0,.3,3.2,1.4,1.4,0,0,1-.2.6l-.4.2-.6-.2a1.1,1.1,0,0,1-.4-.5,4.7,4.7,0,0,1-.6-2,18.3,18.3,0,0,1-.2-2.1,4.4,4.4,0,0,0-1.5,2.1,8.7,8.7,0,0,0-.6,3.2,7.5,7.5,0,0,0,.8,3.5,2.9,2.9,0,0,0,2.6,1.3C444.4,174.8,446.2,173.9,448.1,172Z"/><path class="cls-1" d="M447.2,189.5a1,1,0,0,1-1-1,.7.7,0,0,1,.1-.5l5.2-10.3c4.2-8.4,6.5-12.8,6.8-13.4a1.9,1.9,0,0,1,1.5-.8,1.6,1.6,0,0,1,.9.3.7.7,0,0,1,.4.5v.3a6,6,0,0,1,1.6-.8H464a3.8,3.8,0,0,1,2.8.8,2.4,2.4,0,0,1,1,2.1,8.5,8.5,0,0,1-1.7,4.4,14.6,14.6,0,0,1-4.1,4.1,9.4,9.4,0,0,1-5,1.7l-1.1-.2a2.2,2.2,0,0,1-.9-.7l-6.8,12.9A1,1,0,0,1,447.2,189.5ZM461,173.3a12.6,12.6,0,0,0,3.3-3.2,5.6,5.6,0,0,0,1.3-3.1,1.7,1.7,0,0,0-.3-1,2.1,2.1,0,0,0-1.2-.3,5.4,5.4,0,0,0-3.8,1.7,15,15,0,0,0-3,4,7.2,7.2,0,0,0-.8,2.4c0,.6.3.9.7.9A6.9,6.9,0,0,0,461,173.3Z"/><path class="cls-1" d="M471.6,177.3a3.6,3.6,0,0,1-2.9-1.2,3.9,3.9,0,0,1-1-2.8,9.7,9.7,0,0,1,1.4-4.3,18.2,18.2,0,0,1,3.6-4.2,6,6,0,0,1,3.7-1.8,3.4,3.4,0,0,1,2,.5,2.1,2.1,0,0,1,.7,1.5,6.4,6.4,0,0,1-1.3,3.2,16,16,0,0,1-3.4,3.5,11.7,11.7,0,0,1-4.3,2.2,1.5,1.5,0,0,0,.6.9,2.3,2.3,0,0,0,1.3.3l1.4-.2a7.8,7.8,0,0,0,3.6-1.6,18.1,18.1,0,0,0,3.4-3.4.7.7,0,0,1,.8-.5,1.1,1.1,0,0,1,.7.3.8.8,0,0,1,.4.6c0,.1-.1.2-.1.4a21.4,21.4,0,0,1-4.6,4.5,15.3,15.3,0,0,1-4.6,2Zm1.4-6.9a17.2,17.2,0,0,0,2.7-2.7,3.8,3.8,0,0,0,1.2-2.1c0-.3-.2-.5-.6-.5a4.2,4.2,0,0,0-2.1,1.1,12.5,12.5,0,0,0-2.3,2.7,13.1,13.1,0,0,0-1.6,3.1A10,10,0,0,0,473,170.4Z"/><path class="cls-1" d="M481.4,176.3a3.8,3.8,0,0,1-1.4-1.4,4.6,4.6,0,0,1-.5-2.1,21.6,21.6,0,0,1,1.8-5.1c1.1-2.7,2.4-5.5,3.8-8.4l3-6.2.6-.9.7-.2a.6.6,0,0,1,.6.3,1.1,1.1,0,0,1,.3.8,2.2,2.2,0,0,1-.3,1l-.3.8c-5.3,10.6-8,16.6-8,17.8a2.7,2.7,0,0,0,.5,1.5c.2.4.7.6,1.4.5a6.4,6.4,0,0,0,3.6-1.4,16.3,16.3,0,0,0,3.4-3.5.9.9,0,0,1,.8-.4l.7.2a.9.9,0,0,1,.3.7.8.8,0,0,1-.1.4,20.6,20.6,0,0,1-4.6,4.7,8.2,8.2,0,0,1-4.5,1.4A3.7,3.7,0,0,1,481.4,176.3Z"/><path class="cls-1" d="M490,176.1a1.9,1.9,0,0,1-.8-1.7,9.1,9.1,0,0,1,1.8-5.3,13,13,0,0,1,4.3-4.1,8,8,0,0,1,4.5-1.6,2.6,2.6,0,0,1,2.7,3,6.7,6.7,0,0,1-.8,2.9,12.1,12.1,0,0,1-2.1,3.1h.4a4.8,4.8,0,0,0,2.7-.9,11.2,11.2,0,0,0,1.9-1.8.9.9,0,0,1,.8-.4,1.1,1.1,0,0,1,.8.3.9.9,0,0,1,.3.6.8.8,0,0,1-.1.4,7,7,0,0,1-1.5,1.5,8.7,8.7,0,0,1-2.5,1.5,5.8,5.8,0,0,1-2.8.7,4,4,0,0,1-1.7-.3,11.7,11.7,0,0,1-3.1,2,6.6,6.6,0,0,1-3,.7A2.4,2.4,0,0,1,490,176.1Zm6.1-3.1a6.2,6.2,0,0,1-1.3-4.2,6.1,6.1,0,0,1,.2-1.5,20,20,0,0,0-1.9,2.2c-.5.9-1,1.7-1.3,2.4a5.9,5.9,0,0,0-.5,1.9c0,.6.3.9.7.9A6.9,6.9,0,0,0,496.1,173Zm3.5-4a4.9,4.9,0,0,0,.7-2.4,1.1,1.1,0,0,0-1.2-1.2,1.8,1.8,0,0,0-1.1.5,4.3,4.3,0,0,0-.9,1.3,4.5,4.5,0,0,0-.3,1.6,3.7,3.7,0,0,0,1,2.8A11,11,0,0,0,499.6,169Z"/><path class="cls-1" d="M503.1,174.5a9.4,9.4,0,0,1,1.3-4.3,62.5,62.5,0,0,1,3.3-5.8,1.2,1.2,0,0,1,1.1-.7,1.1,1.1,0,0,1,.8.3.7.7,0,0,1,.3.6,1.1,1.1,0,0,1-.1.5l-1,1.6c-1.1,1.8-2,3.4-2.6,4.5a6.9,6.9,0,0,0-.9,2.7c0,.5.2.8.7.8a5.4,5.4,0,0,0,2.9-1.3,17.8,17.8,0,0,0,3.8-3.6,36.2,36.2,0,0,0,3.6-5.4c.3-.5.6-.7,1-.7a1.2,1.2,0,0,1,.8.4.9.9,0,0,1,.3.9,7.7,7.7,0,0,1-.6,1.5l-1.6,2.5-1.9,3a4.5,4.5,0,0,0-.6,1.9c0,.4.1.7.4.8l.6.2a4.9,4.9,0,0,0,3-1.6,21.9,21.9,0,0,0,3.4-3.4.8.8,0,0,1,.8-.5.9.9,0,0,1,.7.3.6.6,0,0,1,.4.6c0,.1-.1.2-.1.4-3.1,4.1-6.1,6.1-9.1,6.1a3,3,0,0,1-1.5-.5,1.8,1.8,0,0,1-.7-1.5,2.6,2.6,0,0,1,.3-1.1,10.8,10.8,0,0,1-2.9,2.1,6.5,6.5,0,0,1-3.2,1C504,176.8,503.1,176,503.1,174.5Z"/><path class="cls-1" d="M521.6,176.2a5,5,0,0,1-1.4-1.5,3.8,3.8,0,0,1-.5-2.1v-.7l.3-.6.2-.4c1.3-1.7,2.4-3.1,3.2-4.3a27.5,27.5,0,0,0,2-4.2,1.9,1.9,0,0,1,.8-1,2,2,0,0,1,1.1-.3c.4,0,.6,0,.8.2a.6.6,0,0,1,.3.6v.3a3.5,3.5,0,0,1-.1.6,5.9,5.9,0,0,0,.2,1.3l.5,1.6.7,2.1a11.1,11.1,0,0,1,.2,1.9,3.7,3.7,0,0,1-.1,1.1,7.9,7.9,0,0,1-1.2,3,6.3,6.3,0,0,1-2.2,2.1,5.1,5.1,0,0,1-2.9.8A4.5,4.5,0,0,1,521.6,176.2Zm4.8-2.5a6.8,6.8,0,0,0,1.4-3.1,3.7,3.7,0,0,0,.1-1.1,9.9,9.9,0,0,0-.3-2.4c-.3-.8-.5-1.4-.7-1.8l-.3-.8a21.1,21.1,0,0,1-1.9,3.5,39.1,39.1,0,0,1-3,4.1v.4a2.5,2.5,0,0,0,.7,1.9,2.3,2.3,0,0,0,1.6.6A3.1,3.1,0,0,0,526.4,173.7Z"/><path class="cls-1" d="M530.8,176.1a2.1,2.1,0,0,1-.8-1.7,9.5,9.5,0,0,1,1.5-4.8,12.2,12.2,0,0,1,3.6-4.2,7.1,7.1,0,0,1,4.5-1.7,4,4,0,0,1,2,.4,1.6,1.6,0,0,1,1.1,1c.4-.5.7-.8,1-.8a1.5,1.5,0,0,1,.9.4,3,3,0,0,1,.4,1,2.5,2.5,0,0,1-.5,1.1,21.2,21.2,0,0,1-1.3,2l-2,3.1a4.9,4.9,0,0,0-.6,2c0,.4.1.7.4.8l.5.2a4.9,4.9,0,0,0,3-1.6,18.9,18.9,0,0,0,3.4-3.5.9.9,0,0,1,.8-.4,1.1,1.1,0,0,1,.8.3.6.6,0,0,1,.3.6.4.4,0,0,1-.1.3c-3.1,4.2-6.1,6.2-9.1,6.2a2.4,2.4,0,0,1-1.4-.5,1.9,1.9,0,0,1-.8-1.5,2.6,2.6,0,0,1,.3-1.1,10.3,10.3,0,0,1-2.8,2.1,6.5,6.5,0,0,1-3.3,1A2.4,2.4,0,0,1,530.8,176.1Zm5.1-2.8a23.5,23.5,0,0,0,3.7-3.3,5.7,5.7,0,0,0,1.6-3.1,1.8,1.8,0,0,0-.4-1,1.1,1.1,0,0,0-1-.5,6,6,0,0,0-3.6,1.7,12.5,12.5,0,0,0-2.8,3.6,6.8,6.8,0,0,0-1.2,3.1q0,.9.6.9A6.2,6.2,0,0,0,535.9,173.3Z"/><path class="cls-1" d="M548.4,176.2a5,5,0,0,1-1.4-1.5,3.8,3.8,0,0,1-.5-2.1,2,2,0,0,1,.1-.7,1.4,1.4,0,0,1,.2-.6l.2-.4c1.3-1.7,2.4-3.1,3.2-4.3a27.5,27.5,0,0,0,2-4.2,1.9,1.9,0,0,1,.8-1,2,2,0,0,1,1.1-.3c.4,0,.6,0,.8.2a.7.7,0,0,1,.4.6v.3a3.5,3.5,0,0,1-.1.6,5.9,5.9,0,0,0,.2,1.3,8.2,8.2,0,0,0,.6,1.6q.3,1.2.6,2.1a11.1,11.1,0,0,1,.2,1.9,3.7,3.7,0,0,1-.1,1.1,7.9,7.9,0,0,1-1.2,3,6.3,6.3,0,0,1-2.2,2.1,4.9,4.9,0,0,1-2.9.8A4.5,4.5,0,0,1,548.4,176.2Zm4.8-2.5a6.8,6.8,0,0,0,1.4-3.1,3.7,3.7,0,0,0,.1-1.1,9.9,9.9,0,0,0-.3-2.4c-.3-.8-.5-1.4-.7-1.8l-.3-.8a21.1,21.1,0,0,1-1.9,3.5c-.9,1.4-1.9,2.8-2.9,4.1s-.1.2-.1.4a2.9,2.9,0,0,0,.7,1.9,2.3,2.3,0,0,0,1.6.6A3,3,0,0,0,553.2,173.7Z"/><path class="cls-1" d="M304.8,177.7a1.6,1.6,0,0,1-.5-1.4,4.2,4.2,0,0,1,.5-2c1.4-3.1,4.5-9.6,9.3-19.4a10.4,10.4,0,0,0-4.3,3.8,14.2,14.2,0,0,0-2.3,6,1.6,1.6,0,0,1-.5,1.1,1.3,1.3,0,0,1-1,.4.9.9,0,0,1-.7-.3,1,1,0,0,1-.3-.8,19.1,19.1,0,0,1,1.9-5.7,16,16,0,0,1,3.5-4.6,11,11,0,0,1,5-2.6l.2-.5a1,1,0,0,1,.6-.5l.8-.2.7.2c.2.1.3.2.3.4a.4.4,0,0,1-.1.3h.2c2.4,0,4.2.6,5.4,1.9a6.8,6.8,0,0,1,1.7,5,17.5,17.5,0,0,1-2.5,8.6,24.1,24.1,0,0,1-6.9,7.7,16.2,16.2,0,0,1-9.3,3.1A2.9,2.9,0,0,1,304.8,177.7Zm10.2-4.8a22,22,0,0,0,5.8-6.7,14.3,14.3,0,0,0,2.3-7.2,4.5,4.5,0,0,0-1.3-3.6,5,5,0,0,0-3.9-1.4h-1l-9.6,19.6a4.3,4.3,0,0,0-.4,1.4q0,.6.9.6A11.1,11.1,0,0,0,315,172.9Z"/><path class="cls-1" d="M323.1,176a2.5,2.5,0,0,1-.8-1.8,9.2,9.2,0,0,1,1.9-5.5,16,16,0,0,1,4.4-4.2,9.3,9.3,0,0,1,4.7-1.7,2.8,2.8,0,0,1,2,.8,2.8,2.8,0,0,1,.8,2.3,7.5,7.5,0,0,1-.8,3,13.6,13.6,0,0,1-2.2,3.3h.4a4.9,4.9,0,0,0,2.8-.9,12.8,12.8,0,0,0,2-1.8.8.8,0,0,1,.8-.5,1.1,1.1,0,0,1,.8.3.8.8,0,0,1,.4.7.4.4,0,0,1-.1.3,12,12,0,0,1-1.6,1.7,12.7,12.7,0,0,1-2.6,1.5,7.3,7.3,0,0,1-2.9.7,4.8,4.8,0,0,1-1.8-.3,12.1,12.1,0,0,1-3.1,2.1,7.7,7.7,0,0,1-3.2.7A2.8,2.8,0,0,1,323.1,176Zm6.4-3.2a6.4,6.4,0,0,1-1.3-4.4,6.6,6.6,0,0,1,.1-1.5,11.1,11.1,0,0,0-1.9,2.3,9.4,9.4,0,0,0-1.3,2.4,4.5,4.5,0,0,0-.5,2q0,.9.6.9A7.4,7.4,0,0,0,329.5,172.8Zm3.6-4.2a5.2,5.2,0,0,0,.8-2.4,1.5,1.5,0,0,0-.4-1,1.2,1.2,0,0,0-.9-.3,1.6,1.6,0,0,0-1.1.5,3,3,0,0,0-.9,1.3,3.8,3.8,0,0,0-.4,1.7,4.2,4.2,0,0,0,1,2.9A9.5,9.5,0,0,0,333.1,168.6Z"/><path class="cls-1" d="M336.7,174.3a10.8,10.8,0,0,1,1.4-4.5,66.4,66.4,0,0,1,3.4-6,1.5,1.5,0,0,1,1.1-.7,1.1,1.1,0,0,1,.8.3.8.8,0,0,1,.4.7l-.2.4-1,1.7-2.7,4.7a7.2,7.2,0,0,0-.9,2.8c0,.5.2.8.7.8a4.7,4.7,0,0,0,1.6-.5l2.1-1.4a40.3,40.3,0,0,1,4.5-8.8,1.4,1.4,0,0,1,1.1-.7,1.1,1.1,0,0,1,.8.3.7.7,0,0,1,.2,1.1l-1,1.7-2.7,4.7a7.2,7.2,0,0,0-.9,2.8c0,.5.2.8.7.8s1.7-.6,3.1-1.9a19.2,19.2,0,0,0,3.9-5.3,18,18,0,0,0,1.7-7.9,1.2,1.2,0,0,1,.3-.9,1,1,0,0,1,1.5.1,1.3,1.3,0,0,1,.4.9,3.8,3.8,0,0,1,.1,1,16.8,16.8,0,0,1-1.9,7.2,22.4,22.4,0,0,1-4.6,6.4c-1.8,1.7-3.4,2.6-4.7,2.6s-2.3-.5-2.6-1.4a7.4,7.4,0,0,1-3.8,1.4C337.7,176.7,336.7,175.9,336.7,174.3Z"/><path class="cls-1" d="M363.6,176.7a2.9,2.9,0,0,1-1.7-2.6,5.9,5.9,0,0,1,.5-2.2c.4-.8.8-1.7,1.5-2.9l1-1.8a3,3,0,0,0,.3-1.1c0-.7-.3-1.1-.8-1.1a4.4,4.4,0,0,0-2.4,1.2,10.9,10.9,0,0,0-2.3,2.5,26,26,0,0,0-1.3,2.4l-1.8,3.4-.7,1.6a1.2,1.2,0,0,1-.5.5l-.5.2a1.1,1.1,0,0,1-.8-.3,1.3,1.3,0,0,1-.3-.8.9.9,0,0,1,.1-.5c2.5-4.8,4.4-8.7,5.9-11.7a1.1,1.1,0,0,1,1.1-.6,1.7,1.7,0,0,1,1,.3c.3.2.3.4.2.7l1.3-.7,1.5-.2a3.6,3.6,0,0,1,1.9.5,1.8,1.8,0,0,1,.7,1.5,4.3,4.3,0,0,1-.5,2.1,20.7,20.7,0,0,1-1.5,3l-1.1,2.4a2.7,2.7,0,0,0-.4,1.4c0,.5.3.8,1,.8a5.2,5.2,0,0,0,3-1.5,24.7,24.7,0,0,0,3.5-3.7.9.9,0,0,1,.9-.5.9.9,0,0,1,.7.3.7.7,0,0,1,.4.6c0,.2-.1.3-.1.4a21.5,21.5,0,0,1-4.7,4.8,7.4,7.4,0,0,1-4.2,1.8Z"/><path class="cls-1" d="M371.6,175.6a3.7,3.7,0,0,1-1.1-3c0-.8.8-3.2,2.5-7.1a1.1,1.1,0,0,1-.8-.3.9.9,0,0,1-.3-.7,1.4,1.4,0,0,1,.5-.9,2.2,2.2,0,0,1,1.5-.4h.1l3.1-6.7,2.6-5.3a2.7,2.7,0,0,1,.7-.8,1.1,1.1,0,0,1,.7-.3.8.8,0,0,1,.7.4,1.5,1.5,0,0,1,.2.8,2.2,2.2,0,0,1-.3,1v.3c-.1.1-.1.2-.2.4-2,3.9-3.7,7.3-5,10.2h3.5a1.8,1.8,0,0,1,1,.4,1.2,1.2,0,0,1,0,1.6,1.8,1.8,0,0,1-1,.4h-4.5c-1.7,3.9-2.6,6.2-2.6,7a4.2,4.2,0,0,0,.4,1.5,1.5,1.5,0,0,0,1.5.5,7,7,0,0,0,3.7-1.4,20.1,20.1,0,0,0,3.5-3.6.9.9,0,0,1,.9-.5,1.1,1.1,0,0,1,.7.3.9.9,0,0,1,.3.6c0,.2,0,.3-.1.4a18.6,18.6,0,0,1-4.8,4.9,8.1,8.1,0,0,1-4.6,1.5A3.7,3.7,0,0,1,371.6,175.6Z"/><path class="cls-1" d="M381.3,176a2.2,2.2,0,0,1-.8-1.8,9.7,9.7,0,0,1,1.8-5.5,16,16,0,0,1,4.4-4.2,9.3,9.3,0,0,1,4.7-1.7,2.9,2.9,0,0,1,2.1.8,3.2,3.2,0,0,1,.7,2.3,6.1,6.1,0,0,1-.8,3,11.2,11.2,0,0,1-2.2,3.3h.4a4.9,4.9,0,0,0,2.8-.9l2.1-1.8c.1-.4.4-.5.8-.5l.8.3a.9.9,0,0,1,.3.7.4.4,0,0,1-.1.3,8.1,8.1,0,0,1-1.6,1.7,15,15,0,0,1-2.5,1.5,8.2,8.2,0,0,1-3,.7,4.8,4.8,0,0,1-1.8-.3,12.1,12.1,0,0,1-3.1,2.1,7.3,7.3,0,0,1-3.1.7A2.5,2.5,0,0,1,381.3,176Zm6.4-3.2a6,6,0,0,1-1.4-4.4,6.6,6.6,0,0,1,.1-1.5,11.1,11.1,0,0,0-1.9,2.3,14.1,14.1,0,0,0-1.3,2.4,6.4,6.4,0,0,0-.5,2c0,.6.2.9.7.9A7.6,7.6,0,0,0,387.7,172.8Zm3.6-4.2a6.4,6.4,0,0,0,.7-2.4,1.5,1.5,0,0,0-.3-1,1.2,1.2,0,0,0-.9-.3,1.8,1.8,0,0,0-1.2.5,3,3,0,0,0-.9,1.3,5.5,5.5,0,0,0-.3,1.7,3.8,3.8,0,0,0,1,2.9A16.5,16.5,0,0,0,391.3,168.6Z"/><path class="cls-1" d="M394.9,174.3a10.4,10.4,0,0,1,1.3-4.5,66.4,66.4,0,0,1,3.4-6,1.5,1.5,0,0,1,1.2-.7,1.3,1.3,0,0,1,.8.3.9.9,0,0,1,.3.7.6.6,0,0,1-.1.4l-1,1.7c-1.2,1.9-2.1,3.5-2.7,4.7a6.3,6.3,0,0,0-1,2.8c0,.5.2.8.8.8l1.5-.5,2.1-1.4a40.3,40.3,0,0,1,4.5-8.8,1.5,1.5,0,0,1,1.2-.7,1.3,1.3,0,0,1,.8.3.9.9,0,0,1,.3.7v.4l-1,1.7c-1.2,1.9-2.1,3.5-2.8,4.7a7.2,7.2,0,0,0-.9,2.8c0,.5.2.8.7.8s1.7-.6,3.1-1.9a17.4,17.4,0,0,0,3.9-5.3,18,18,0,0,0,1.7-7.9,1.2,1.2,0,0,1,.3-.9,1.1,1.1,0,0,1,.8-.3.9.9,0,0,1,.7.4,1,1,0,0,1,.4.9,3.8,3.8,0,0,1,.1,1,15.5,15.5,0,0,1-1.9,7.2,22.4,22.4,0,0,1-4.6,6.4c-1.8,1.7-3.3,2.6-4.7,2.6a2.5,2.5,0,0,1-2.6-1.4,7.4,7.4,0,0,1-3.8,1.4Q394.9,176.7,394.9,174.3Z"/><path class="cls-1" d="M421.7,176.7a2.9,2.9,0,0,1-1.7-2.6,5.9,5.9,0,0,1,.5-2.2L422,169l1-1.8a3,3,0,0,0,.3-1.1c0-.7-.3-1.1-.8-1.1a3.9,3.9,0,0,0-2.3,1.2,9.4,9.4,0,0,0-2.4,2.5,26,26,0,0,0-1.3,2.4l-1.7,3.4-.8,1.6-.4.5-.6.2a1.1,1.1,0,0,1-.8-.3,1.3,1.3,0,0,1-.3-.8.9.9,0,0,1,.1-.5c2.5-4.8,4.5-8.7,5.9-11.7a1.1,1.1,0,0,1,1.1-.6,1.7,1.7,0,0,1,1,.3c.3.2.4.4.2.7l1.4-.7,1.5-.2a3.5,3.5,0,0,1,1.8.5,1.9,1.9,0,0,1,.8,1.5,5.8,5.8,0,0,1-.5,2.1l-1.5,3a25.8,25.8,0,0,0-1.2,2.4,2.7,2.7,0,0,0-.4,1.4c0,.5.3.8,1,.8a5.7,5.7,0,0,0,3.1-1.5,41.9,41.9,0,0,0,3.5-3.7.8.8,0,0,1,.8-.5,1.1,1.1,0,0,1,.8.3.9.9,0,0,1,.3.6c0,.2,0,.3-.1.4a21.5,21.5,0,0,1-4.7,4.8,7.4,7.4,0,0,1-4.1,1.8Z"/><path class="cls-2" d="M222.3,178.8c0-10.2,2.5-23,7.6-38.5s10.9-30.8,17.5-45.9,14.7-32.8,24.3-53.1c7.1-14.6,11.8-24.6,13.9-29.9a12,12,0,0,1,3.7-4A8.2,8.2,0,0,1,293.8,6,6.8,6.8,0,0,1,298,7.4a4.6,4.6,0,0,1,1.8,3.7,7.4,7.4,0,0,1-1.1,3.4L288.5,35.9q-22.3,46-33.9,73.4a73.2,73.2,0,0,0,10.6,4.1,32.3,32.3,0,0,0,9,1.4,20.9,20.9,0,0,0,10.7-3q5.1-2.8,10.2-9.6a5.7,5.7,0,0,1,5-2.5,6.4,6.4,0,0,1,3.8,1.2,4,4,0,0,1,1.7,3.2,6.3,6.3,0,0,1-.8,2.6c-8.5,12.8-18.7,19.2-30.4,19.2a34.2,34.2,0,0,1-14.3-3.3,201.2,201.2,0,0,1,4,37.8c0,12-1.8,21.8-5.3,29.5s-9.6,11.5-18.2,11.5C228.4,201.4,222.3,193.9,222.3,178.8Zm30.5-15.7a162.5,162.5,0,0,0-1.4-20.3c-.9-7.1-1.8-13.3-2.9-18.6Q233.4,162,233.4,178c0,7.6,2.6,11.5,7.7,11.5Q252.8,189.5,252.8,163.1Z"/><path class="cls-2" d="M308.7,143.4c-7,0-12.3-2.1-16-6.3s-5.5-9.3-5.5-15.5,2.7-14.3,8-23.2a91.9,91.9,0,0,1,19.3-23c7.6-6.5,14.3-9.7,20.3-9.7s8.4.9,10.7,2.8a9.4,9.4,0,0,1,3.6,7.8c0,5-2.4,10.9-7,17.7a84,84,0,0,1-18.4,18.9,67.8,67.8,0,0,1-23.2,12,9.2,9.2,0,0,0,3.2,4.9c1.4,1.1,3.7,1.6,6.9,1.6a38.7,38.7,0,0,0,7.6-.9,45.6,45.6,0,0,0,19.8-8.7q8.7-6.6,18.3-18.9a4.8,4.8,0,0,1,4.4-2.5,6.4,6.4,0,0,1,4,1.5,4.3,4.3,0,0,1,1.8,3.4,3.6,3.6,0,0,1-.6,2c-8.3,11.1-16.6,19.3-24.8,24.7a74.2,74.2,0,0,1-24.9,10.6A33,33,0,0,1,308.7,143.4Zm7.7-37.7a106.3,106.3,0,0,0,14.7-14.5c4.2-5,6.2-8.8,6.2-11.4s-1.1-2.7-3.2-2.7-6.7,2-11.2,6a85.2,85.2,0,0,0-12.7,14.7,67.7,67.7,0,0,0-8.6,16.6C305.8,113.2,310.7,110.3,316.4,105.7Z"/><path class="cls-2" d="M359.2,137.3a24.5,24.5,0,0,1-7.8-8.2,22.6,22.6,0,0,1-2.9-11,29.9,29.9,0,0,1,.4-4.1,10.1,10.1,0,0,1,1.2-3.3l1.3-2c7.2-9.1,13-17,17.2-23.5a118.9,118.9,0,0,0,11.1-22.6,9.8,9.8,0,0,1,4.2-5.6,11.4,11.4,0,0,1,6.3-2,7.6,7.6,0,0,1,4.4,1.2,4.2,4.2,0,0,1,1.7,3.4,7.4,7.4,0,0,1-.3,1.8,27.9,27.9,0,0,0-.3,3.3,27.1,27.1,0,0,0,.9,6.8c.6,2.4,1.6,5.3,2.9,8.9s2.7,8.2,3.5,11.4a41.1,41.1,0,0,1,1.2,10.1,30.6,30.6,0,0,1-.6,6.3,39.5,39.5,0,0,1-6.4,16.1A38.5,38.5,0,0,1,385.1,136a29.8,29.8,0,0,1-15.6,4.3A19.5,19.5,0,0,1,359.2,137.3Zm25.9-13.5a34.8,34.8,0,0,0,7.6-16.6,28.7,28.7,0,0,0,.6-6.1A43.7,43.7,0,0,0,391.4,88a73.5,73.5,0,0,0-3.4-9.9q-1.5-3.6-1.8-4.5A113.8,113.8,0,0,1,375.9,93a195.3,195.3,0,0,1-16,22,13.8,13.8,0,0,0-.2,2.5q0,6.6,3.6,9.9a12,12,0,0,0,8.6,3.4C376.7,130.8,381.1,128.5,385.1,123.8Z"/><path class="cls-2" d="M412.5,135.1c-3.7-3.8-5.6-9.1-5.6-16,0-4.2,4.4-16.6,13.2-37.1a6.2,6.2,0,0,1-4.1-1.7,4.9,4.9,0,0,1-1.5-3.6,6.2,6.2,0,0,1,2.6-4.8c1.8-1.4,4.3-2.1,7.6-2h.6c4.6-10.4,10.1-22.1,16.4-35S452.6,12.6,455.5,7a13.4,13.4,0,0,1,3.4-4.4,6.9,6.9,0,0,1,3.8-1.4,4.5,4.5,0,0,1,3.4,1.7,6.7,6.7,0,0,1,1.4,4.3,13,13,0,0,1-1.6,5.6,6.1,6.1,0,0,1-.7,1.4c-.2.5-.6,1.2-1,2.2q-15.6,30.5-26.3,53.7c11.8,0,18-.1,18.7-.2a6.7,6.7,0,0,1,4.8,2.1,6.1,6.1,0,0,1,1.9,4.3,5.9,5.9,0,0,1-1.9,4.2,6.9,6.9,0,0,1-5.1,1.7c-1.5.1-6.6.1-15.4-.1h-8c-9.1,20.4-13.7,32.5-13.7,36.5a15.2,15.2,0,0,0,2.1,8c1.4,2.3,4,3.3,7.7,2.9a37.7,37.7,0,0,0,19.5-7.5c5.6-4.2,11.7-10.6,18.3-19.1a5.4,5.4,0,0,1,4.7-2.6,5.5,5.5,0,0,1,3.8,1.5,4.7,4.7,0,0,1,1.7,3.5,3.9,3.9,0,0,1-.6,2.1c-8.8,11.7-17.1,20.2-25,25.5s-16.1,7.9-24.4,7.9C421.1,140.7,416.3,138.9,412.5,135.1Z"/><path class="cls-3" d="M5.9,211.1a5.5,5.5,0,0,1-4.1-1.8A5.7,5.7,0,0,1,0,205.2a5.4,5.4,0,0,1,.7-2.7L29.4,146c23.2-45.9,35.7-70.5,37.4-73.6a9,9,0,0,1,8-4.3,9.2,9.2,0,0,1,4.9,1.3,3.9,3.9,0,0,1,2.1,3.1,2.3,2.3,0,0,1-.4,1.4,23.7,23.7,0,0,1,9.2-4.1,36.9,36.9,0,0,1,7.4-1c7.1,0,12.3,1.4,15.7,4.4s5.1,6.8,5.1,11.8q0,10.5-9,24a87.1,87.1,0,0,1-22.9,22.8c-9.2,6.2-18.4,9.3-27.4,9.3a16.7,16.7,0,0,1-6.2-1.2,14.3,14.3,0,0,1-5-3.6l-37,70.8C10,209.7,8.2,211.1,5.9,211.1Zm75.8-89.2a70.6,70.6,0,0,0,18.1-17.6c4.8-6.8,7.2-12.5,7.2-17.2a7.3,7.3,0,0,0-2-5.4c-1.4-1.2-3.5-1.9-6.4-1.9-6.9,0-13.8,3.1-20.6,9.4a75.7,75.7,0,0,0-16.8,22.3c-2.8,5.7-4.2,10.2-4.2,13.3s1.2,4.6,3.6,4.6C67.4,129.4,74.4,126.9,81.7,121.9Z"/><path class="cls-3" d="M140,143.9c-7.1,0-12.5-2.2-16.2-6.4a23.2,23.2,0,0,1-5.6-15.7c0-6.7,2.7-14.5,8.1-23.5A94.1,94.1,0,0,1,145.9,75c7.6-6.5,14.4-9.8,20.5-9.8s8.5,1,10.9,2.9a9.6,9.6,0,0,1,3.5,7.8c0,5.1-2.3,11.1-7.1,18A87.4,87.4,0,0,1,155.2,113a68.5,68.5,0,0,1-23.5,12.1,9.2,9.2,0,0,0,3.2,4.9c1.5,1.1,3.8,1.7,7,1.7a39.6,39.6,0,0,0,7.7-.9,46.7,46.7,0,0,0,20.1-8.8c5.8-4.4,11.9-10.8,18.4-19.1a5.2,5.2,0,0,1,4.5-2.6,6.2,6.2,0,0,1,4,1.5,4.6,4.6,0,0,1,1.9,3.5,3.6,3.6,0,0,1-.6,2c-8.4,11.2-16.8,19.5-25.2,25A72.6,72.6,0,0,1,147.6,143,34.9,34.9,0,0,1,140,143.9Zm7.7-38.2a103.4,103.4,0,0,0,14.9-14.6c4.2-5.1,6.3-9,6.3-11.6s-1.1-2.7-3.3-2.7-6.7,2-11.2,6a83.9,83.9,0,0,0-12.9,14.9,69.4,69.4,0,0,0-8.7,16.8C137,113.3,142,110.3,147.7,105.7Z"/><path class="cls-3" d="M188.3,135.4q-5.7-5.7-5.7-16.2c0-4.2,4.4-16.7,13.3-37.5a6.2,6.2,0,0,1-4.1-1.7,4.9,4.9,0,0,1-1.5-3.6,6.4,6.4,0,0,1,2.6-4.9c1.8-1.4,4.4-2.1,7.7-2h.6C205.9,59,211.4,47.2,217.8,34s11-22.5,13.9-28.1a14.1,14.1,0,0,1,3.5-4.5A6.9,6.9,0,0,1,239,0a4.7,4.7,0,0,1,3.5,1.7A6.9,6.9,0,0,1,243.9,6a13.4,13.4,0,0,1-1.6,5.7c-.2.4-.4.9-.7,1.4s-.6,1.3-1,2.2q-15.9,30.9-26.7,54.3h75.2a6.8,6.8,0,0,1,4.9,2.1,5.9,5.9,0,0,1,1.9,4.3,5.6,5.6,0,0,1-1.9,4.3,6.9,6.9,0,0,1-5.1,1.8c-1.6.1-63.1,0-72-.2h-8c-9.2,20.6-13.9,32.9-13.9,36.9a14.5,14.5,0,0,0,2.2,8.1c1.4,2.4,4,3.4,7.7,3a38.7,38.7,0,0,0,19.7-7.6c5.7-4.3,11.9-10.8,18.6-19.4a5.3,5.3,0,0,1,4.7-2.5,6,6,0,0,1,3.9,1.5,4.6,4.6,0,0,1,1.7,3.5,3.9,3.9,0,0,1-.6,2.1c-8.9,11.9-17.3,20.5-25.4,25.8s-16.2,8-24.6,8A19.8,19.8,0,0,1,188.3,135.4Z"/></g></g></svg>