<svg xmlns="http://www.w3.org/2000/svg" viewBox="0 0 556.7 667.1"><defs><style>.cls-1{fill:#663812;}.cls-2{fill:#dd9a58;}.cls-3{fill:#f7941e;}.cls-4{fill:#f27619;}.cls-5{fill:#f4ba27;}.cls-6{fill:#c18c57;}</style></defs><g id="Layer_2" data-name="Layer 2"><g id="icons"><path class="cls-1" d="M172.7,323.4a3.9,3.9,0,0,1-3.5-2.1c-4.2-8-4.6-26.8-3.8-35.1.6-6.6,5.5-11.4,11.6-11.2,12.7.5,21.3,2.8,25.3,6.9a3.9,3.9,0,0,1,0,5.6,4,4,0,0,1-5.6,0c-2.4-2.5-9.9-4.2-20-4.6-2.1-.1-3.3,2-3.5,4-.7,8.8,0,25.1,3,30.7a4.1,4.1,0,0,1-1.7,5.4A3.9,3.9,0,0,1,172.7,323.4Z"/><path class="cls-1" d="M294.2,323.4a3.7,3.7,0,0,1-1.8-.4,4,4,0,0,1-1.7-5.4c2.9-5.6,3.7-21.9,2.9-30.7-.2-2-1.4-4.1-3.5-4-10,.4-17.5,2.1-20,4.6a4,4,0,0,1-5.6-5.6c4.1-4.1,12.6-6.4,25.3-6.9,6.1-.2,11.1,4.6,11.7,11.2.7,8.3.3,27.1-3.8,35.1A4,4,0,0,1,294.2,323.4Z"/><path class="cls-1" d="M233.4,408.2A67.7,67.7,0,1,1,301,340.5,67.7,67.7,0,0,1,233.4,408.2Zm0-127.4a59.8,59.8,0,1,0,59.8,59.7A59.8,59.8,0,0,0,233.4,280.8Z"/><path class="cls-1" d="M233.4,350.9a4.7,4.7,0,0,1-1.7-.4c-2-1-8.5-4.6-8.5-10.2,0-3.5,2.9-6.2,6.7-6.2h1.6l2,.7,2-.7H237c3.8,0,6.7,2.7,6.7,6.2,0,5.6-6.6,9.2-8.6,10.2A4.7,4.7,0,0,1,233.4,350.9Z"/><path class="cls-1" d="M221,364.8a16.4,16.4,0,0,1-14.9-9.5,4,4,0,0,1,2-5.3,3.9,3.9,0,0,1,5.2,2,8.5,8.5,0,0,0,16.2-3.5v-1.6a3.8,3.8,0,0,1,3.9-3.9,3.9,3.9,0,0,1,4,3.9v1.6A16.4,16.4,0,0,1,221,364.8Z"/><path class="cls-1" d="M245.8,364.8a16.3,16.3,0,0,1-16.3-16.3v-1.6a3.8,3.8,0,0,1,3.9-3.9,3.9,3.9,0,0,1,4,3.9v1.6a8.5,8.5,0,0,0,16.2,3.5,3.9,3.9,0,0,1,5.2-2,4,4,0,0,1,1.9,5.3A16.3,16.3,0,0,1,245.8,364.8Z"/><path class="cls-1" d="M204.6,345.5A10.6,10.6,0,1,1,215.1,335,10.5,10.5,0,0,1,204.6,345.5Zm0-13.2a2.7,2.7,0,1,0,0,5.3,2.7,2.7,0,0,0,0-5.3Z"/><path class="cls-1" d="M262.3,345.5A10.6,10.6,0,1,1,272.8,335,10.5,10.5,0,0,1,262.3,345.5Zm0-13.2a2.7,2.7,0,1,0,0,5.3,2.7,2.7,0,0,0,0-5.3Z"/><path class="cls-1" d="M233.4,311.4a3.8,3.8,0,0,1-3.9-3.9V276.9a3.9,3.9,0,0,1,3.9-4,4,4,0,0,1,4,4v30.6A3.9,3.9,0,0,1,233.4,311.4Z"/><path class="cls-1" d="M222.4,301.6a3.8,3.8,0,0,1-3.9-3.9V278.1a3.9,3.9,0,1,1,7.8,0v19.6A3.8,3.8,0,0,1,222.4,301.6Z"/><path class="cls-1" d="M244.4,301.6a3.9,3.9,0,0,1-3.9-3.9V278.1a4,4,0,1,1,7.9,0v19.6A3.9,3.9,0,0,1,244.4,301.6Z"/><path class="cls-1" d="M297.1,344.5H281.2a4,4,0,1,1,0-7.9h15.9a4,4,0,0,1,0,7.9Z"/><path class="cls-1" d="M295.3,333.5H281.2a4,4,0,0,1-4-4,3.9,3.9,0,0,1,4-3.9h14.1a3.8,3.8,0,0,1,3.9,3.9A3.9,3.9,0,0,1,295.3,333.5Z"/><path class="cls-1" d="M295.6,355.5H281.2a4,4,0,1,1,0-7.9h14.4a4,4,0,1,1,0,7.9Z"/><path class="cls-1" d="M185.7,344.5h-16a4,4,0,0,1,0-7.9h16a4,4,0,0,1,0,7.9Z"/><path class="cls-1" d="M185.7,333.5H171.6a4,4,0,0,1-4-4,3.9,3.9,0,0,1,4-3.9h14.1a3.9,3.9,0,0,1,3.9,3.9A4,4,0,0,1,185.7,333.5Z"/><path class="cls-1" d="M185.7,355.5H171.2a4,4,0,0,1,0-7.9h14.5a4,4,0,0,1,0,7.9Z"/><path class="cls-2" d="M296.5,267c-10.4,0-25.2-10-28.4-19.8-6.3-18.9,25.9-52,46.8-59.1,11-3.7,24.8,4.9,30.3,15a3.8,3.8,0,0,1-1.5,5.3,4,4,0,0,1-5.4-1.5c-3.8-7-14-13.6-20.9-11.3-18.5,6.3-46.2,36.2-41.9,49.1,2.5,7.3,15.6,15.2,21.8,14.4,1.3-.2,1.9-.6,2-2.3.8-12.3,4.6-42.1,21.9-52.4a7.6,7.6,0,0,1,6.4-.7c2.8.9,5,3.5,6.8,8a3.9,3.9,0,0,1-2.2,5.1,4.1,4.1,0,0,1-5.2-2.2,9.8,9.8,0,0,0-1.8-3.3c-11.5,6.8-16.8,28.2-18,46-.3,5.3-3.6,8.9-8.8,9.6Z"/><path class="cls-2" d="M435.8,267H434c-5.2-.7-8.5-4.3-8.9-9.6-1.1-17.8-6.4-39.2-17.9-46a7.8,7.8,0,0,0-1.9,3.3,3.9,3.9,0,0,1-7.3-2.9c1.8-4.5,4-7.1,6.8-8a7.4,7.4,0,0,1,6.3.7c17.4,10.3,21.1,40.1,21.9,52.4.1,1.7.7,2.1,2,2.3,6.2.8,19.4-7.1,21.8-14.4,1.9-5.7-2.7-16-12.2-26.8s-21-19.4-29.7-22.3c-6.8-2.3-17,4.3-20.9,11.3a3.8,3.8,0,0,1-5.3,1.5,3.9,3.9,0,0,1-1.6-5.3c5.6-10.1,19.4-18.7,30.4-15,20.9,7.1,53.1,40.2,46.8,59.1C461,257,446.2,267,435.8,267Z"/><path class="cls-2" d="M320.5,301.9h-.6a4.1,4.1,0,0,1-3.3-4.5c1.5-10.4-.9-20.2-3.1-28.7a95.3,95.3,0,0,1-2.8-13.7v-.2a4.1,4.1,0,0,0-.1-1.1v-1.9a55.5,55.5,0,0,1,111,0V255a108.5,108.5,0,0,1-1.9,11.9c-1.7,8.7-3.6,18.6-1.9,29.7a4,4,0,0,1-3.4,4.5,3.9,3.9,0,0,1-4.4-3.3c-1.9-12.4.2-23,2-32.4.7-3.9,1.5-7.7,1.8-11.1h3.9l-3.9-.3a1.9,1.9,0,0,1,.1-.8v-1.5a47.6,47.6,0,1,0-95.2,0v1.5c0,.2.1.5.1.8v.2a74.6,74.6,0,0,0,2.6,12.4c2.3,9.3,5,19.8,3.2,31.8A4,4,0,0,1,320.5,301.9Z"/><path class="cls-3" d="M367.7,342.7c-5.7,0-35-.7-48-15.1a23.7,23.7,0,0,1-5.9-19c1.2-10.7,8.4-18.3,14.1-24.4,1.9-2.1,3.7-4,5.1-5.9a21.6,21.6,0,0,0,4.5-10V247.7a30.2,30.2,0,0,1,60.4,0v19.9c.1,1.7.8,5.9,4.5,10.7a69.5,69.5,0,0,0,5.4,6c5.9,6.1,13.3,13.8,13.9,24.5a24.4,24.4,0,0,1-6.8,19.1C401.6,342,373.3,342.7,367.7,342.7Zm0-117.3a22.4,22.4,0,0,0-22.4,22.3v21.2c-.3,3.4-1.7,8.5-6,14.2a82,82,0,0,1-5.7,6.4c-5.4,5.9-11,11.9-11.9,19.9a15.6,15.6,0,0,0,3.9,12.9c8.3,9.3,27.9,12.6,42.1,12.6s32.9-3.3,41.5-12.4a17.1,17.1,0,0,0,4.6-13.2c-.4-7.9-6.2-13.8-11.7-19.6a70.1,70.1,0,0,1-5.9-6.6A27.9,27.9,0,0,1,390,268v-1.6h0V247.7A22.3,22.3,0,0,0,367.7,225.4Z"/><path class="cls-4" d="M367.4,297.5a3.9,3.9,0,0,1-1.8-.4c-1.6-.8-6.9-3.7-6.9-8.5,0-3.2,2.6-5.6,6.1-5.6h1.3l1.3.4,1.4-.4h1.3a5.7,5.7,0,0,1,6,5.6c0,4.8-5.4,7.7-7,8.5A3.3,3.3,0,0,1,367.4,297.5Z"/><path class="cls-4" d="M353,315.5a18.5,18.5,0,0,1-16.7-10.7,4,4,0,0,1,2-5.3,3.9,3.9,0,0,1,5.2,2,10.4,10.4,0,0,0,19.9-4.3v-1.8a4,4,0,0,1,4-4,3.9,3.9,0,0,1,3.9,4v1.8A18.3,18.3,0,0,1,353,315.5Z"/><path class="cls-4" d="M381.7,315.5a18.3,18.3,0,0,1-18.3-18.3v-1.8a4,4,0,0,1,4-4,3.9,3.9,0,0,1,3.9,4v1.8a10.4,10.4,0,0,0,19.9,4.3,4,4,0,0,1,5.3-2,4.1,4.1,0,0,1,1.9,5.3A18.4,18.4,0,0,1,381.7,315.5Z"/><path class="cls-1" d="M328.7,269.4a4,4,0,0,1-1.5-.3,4,4,0,0,1-2.1-5.2,16.7,16.7,0,0,1,11.5-9.7,16.5,16.5,0,0,1,16.5,5.7,3.9,3.9,0,0,1-6.1,5,8.6,8.6,0,0,0-8.6-3,8.9,8.9,0,0,0-6.1,5.1A3.9,3.9,0,0,1,328.7,269.4Z"/><path class="cls-1" d="M403.6,269.4A4,4,0,0,1,400,267a8.6,8.6,0,0,0-14.7-2.1,3.9,3.9,0,1,1-6-5,16.4,16.4,0,0,1,16.4-5.7,16.7,16.7,0,0,1,11.6,9.7,4,4,0,0,1-2.1,5.2A4.1,4.1,0,0,1,403.6,269.4Z"/><path class="cls-5" d="M105.1,325.3h-2.6c-5.6-.8-12.2-4.1-14-11.2l-.3-1.3a.8.8,0,0,0-.1-.4c0-.3-.1-.6-.1-.9v-2.8a.3.3,0,0,1,.1-.2h0c0-.3.1-.6.1-.8V307a2.5,2.5,0,0,0,.2-.7l.2-.4a2.5,2.5,0,0,1,.2-.7H89a9.3,9.3,0,0,1,.5-1v-.2l.4-.7V303l.4-.5.3-.4.4-.6h.1a.1.1,0,0,1,.1-.1l.5-.6,1.3-1.4h.1l1-1c1.7-1.7,2.6-2.9,3-4.3,1.5-6.4,7.6-27.7,22.9-30.2,5.3-.9,9.4-.7,13.1.5h0l1.5.5a.1.1,0,0,0,.1.1,17.5,17.5,0,0,1,5.3,3.7h.1l1,1.1c0,.1.1.1.1.2l1,1.2.2.2,1,1.4c3.8,5.5,5,10.5,7,19.5.4,1.5,2.7,4.5,4.2,6.4l2.9,4.1a13.6,13.6,0,0,1,1.8,6.4V311c0,.5-.1,1-.1,1.5v.3a17.1,17.1,0,0,1-.9,3v.2h-.1l-.5,1.2-.2.3a5.7,5.7,0,0,1-.8,1.3c0,.1-.2.2-.2.3l-.8.9h-.1l-.2.2a6,6,0,0,1-1.2,1.1,15.8,15.8,0,0,1-9.8,3.4h0c-4.5,0-8.4-1.8-11.9-3.4s-5-2.3-6.8-2.2h-.6a13.4,13.4,0,0,0-4.3,1.3,101.6,101.6,0,0,1-11.3,4,5,5,0,0,1-1.3.3h-.6l-.8.2h-1.7Zm-.8-7.9h2.9a111.4,111.4,0,0,0,10.6-3.8,22.6,22.6,0,0,1,6.4-1.9h1.7c3.4,0,6.7,1.5,9.8,2.9s5.9,2.7,8.7,2.7h0a8.6,8.6,0,0,0,5.1-1.8l.3-.3.2-.2.2-.3h.1l.3-.5a.1.1,0,0,1,.1-.1,1.4,1.4,0,0,0,.2-.6v-.2a7.5,7.5,0,0,0,.5-1.6l3.9.6-3.9-.7c0-.3.1-.5.1-.8h0v-.9a5.7,5.7,0,0,0-.7-2.7c-.5-.8-1.4-2-2.4-3.3-2.3-2.9-4.8-6.3-5.5-9.4-2.2-9.4-3.1-12.8-5.9-16.8l-.7-1.1-.2-.2-.6-.7c0-.1-.1-.1-.1-.2l-.7-.7h-.1a10.2,10.2,0,0,0-3-2.1h-.1l-.8-.4h-.1c-2.3-.8-5.3-.9-9.2-.2-10.8,1.8-15.7,20.5-16.6,24.2s-3,6-5,8l-1,1.1h-.3l-.2.3h-.1l-.5.6-.4.3c0,.1-.1.1-.1.2l-.3.3h-.1l-.3.5c0,.1-.1.2-.1.3l-.3.4v.2c-.1,0-.1.1-.1.2H96v.5h0v.2h0v.2a.4.4,0,0,0-.1.3v.2a.8.8,0,0,0,.1.4v.8a1.7,1.7,0,0,0,.1.7c.9,3.3,4.3,4.9,7.3,5.3h.9Z"/><path class="cls-5" d="M88.5,288.6H87.1l-1.4-.3h-.4a1.6,1.6,0,0,1-.9-.3h-.3l-1.1-.5-.5-.2-.7-.4-.7-.4-.7-.4h-.1l-.4-.3-.6-.5-.8-.6-.4-.4-.4-.4h-.2a22.4,22.4,0,0,1-5.1-8c-2.1-5.4-2.2-11-.1-15.3a11,11,0,0,1,6.7-6,12,12,0,0,1,8.7.6l.3.2,1.5.8h.2l1.3.9.4.3,1,.8v.2l.3.2,1.2,1.2h0l1.2,1.4.3.5.8,1.1a4.3,4.3,0,0,0,.4.7l.6,1.1.2.5.9,1.8c2.1,5.5,2.1,11.1,0,15.4a11.3,11.3,0,0,1-6.7,6l-1.4.4H88.5ZM83.1,278a.1.1,0,0,1,.1.1l.3.2.2.2.5.5.4.3h.2l.4.3.4.2.4.2h.2l.5.2h2.6a3.4,3.4,0,0,0,2-1.9c1.1-2.3,1-5.8-.3-9.1l-.5-1.2-.2-.4-.5-.8c-.1-.2-.1-.3-.2-.4l-.5-.8-.2-.3-.8-.9h0a3,3,0,0,0-.8-.8l-.2-.3-.6-.5h-.3a1.8,1.8,0,0,0-.7-.5h-.1l-.7-.4h-.1a4.2,4.2,0,0,0-3.2-.4,3.3,3.3,0,0,0-2,1.9c-1.1,2.3-1,5.8.3,9.1A17.2,17.2,0,0,0,83.1,278Z"/><path class="cls-5" d="M107.4,266.2h-1.3l-1-.2h-.4l-1.2-.4h-.2c0-.1-.1-.1-.2-.1l-.7-.3h-.3l-1.1-.6-.5-.3-.6-.4-.7-.5-.5-.4-.5-.4-.5-.5a4.6,4.6,0,0,1-.7-.7h-.1l-.3-.4c-.1-.1-.3-.2-.4-.4a21.1,21.1,0,0,1-4.1-8.2,17.6,17.6,0,0,1,2-13.8,11.4,11.4,0,0,1,7.8-5.2,12.9,12.9,0,0,1,8.5,1.6h.1l1.4.9h.2l1.1.9.3.2,1,1.1h.1a.2.2,0,0,0,.2.2l1,1.2v.2c.3.4.6,1,.9,1.5l.2.3.7,1.3.2.4v.2c.1.3.3.7.4,1.1l.2.5a10.5,10.5,0,0,1,.5,1.9,16.9,16.9,0,0,1-1.9,13.7,11.4,11.4,0,0,1-7.8,5.3h-2Zm-1.5-8.2h.1l.5.2h1.6a3.5,3.5,0,0,0,2.5-1.8,9.6,9.6,0,0,0,.9-7.6l-.3-1.1-.2-.4-.3-.7v-.3a3,3,0,0,1-.4-.8v-.2l-.6-.9h-.1l-.6-.7-.2-.3-.5-.5,2.6-3-2.7,2.9-.7-.6h-.1l-.7-.4h-.1a4.7,4.7,0,0,0-3.2-.6,3.5,3.5,0,0,0-2.6,1.8c-1.2,1.8-1.5,4.7-.8,7.5a11.6,11.6,0,0,0,2.5,5.1l.2.3h.3l.4.5.2.2.2.2c.1,0,.1,0,.1.1h.2l.4.3.3.2h.2l.6.3h.5Z"/><path class="cls-5" d="M157.4,279.6h0a10.4,10.4,0,0,1-4.9-1.1l-1.2-.6-.3-.2-1-.9h-.2l-.9-.9h0a4.8,4.8,0,0,1-.9-1.1.3.3,0,0,1-.1-.2c-.3-.4-.4-.7-.6-1v-.2l-.5-1.1c-.1-.2-.1-.4-.2-.6a6.4,6.4,0,0,1-.2-.7,2.4,2.4,0,0,1-.2-.8,6.4,6.4,0,0,1-.2-.7,1.3,1.3,0,0,0-.1-.6v-.9a1.9,1.9,0,0,1-.1-.8v-1.4a22.8,22.8,0,0,1,2.4-9c3.5-6.6,9.5-11,15.6-11a11.3,11.3,0,0,1,4.8,1.1,12,12,0,0,1,5.9,6.4v.2a15.4,15.4,0,0,1,.5,1.7.4.4,0,0,1,.1.3,6.8,6.8,0,0,1,.2,1.4.9.9,0,0,1,.1.5c0,.4.1.9.1,1.4v.4a8.6,8.6,0,0,1-.1,1.6v.2l-.3,1.8v.4c-.1.6-.2,1-.3,1.5s-.1.4-.2.6-.3.8-.4,1.2l-.3.6a8.9,8.9,0,0,1-.8,1.7C169.5,275.3,163.4,279.6,157.4,279.6Zm-2-8.5h.1l.4.2a4,4,0,0,0,1.5.3c2.5,0,6.3-2.3,8.5-6.7l.6-1.1c0-.2,0-.2.1-.3a9.4,9.4,0,0,1,.3-.9c0-.2.1-.3.1-.4a2.9,2.9,0,0,0,.2-.9v-.2c0-.4.1-.8.1-1.1h.1v-2.3c0-.2-.1-.5-.1-.8h0a1.4,1.4,0,0,1-.2-.7H167a3.4,3.4,0,0,0-1.8-2.2,2.8,2.8,0,0,0-1.5-.4c-2.6,0-6.3,2.3-8.5,6.7a12.7,12.7,0,0,0-1.6,5.8h0v1.2c0,.2,0,.3.1.4v.3c0,.2.1.3.1.4s.1.3.1.4a.4.4,0,0,0,.1.3,1,1,0,0,1,.1.3c0,.1.1.2.1.3v.2l.2.3h.1c0,.1.1.2.2.3s.1.1.1.2l.2.2c.1,0,.1,0,.1.1h.2Z"/><path class="cls-5" d="M134.6,262.4h-.8l-1.7-.3h-.4l-1.3-.4-.4-.2h-.1l-1.3-.7h-.2a19.3,19.3,0,0,1-2.8-2.2l-.2-.2-1-1.2h0a19,19,0,0,1-3.6-12.1c.3-9.3,6.8-16.6,14.5-16.1a12.9,12.9,0,0,1,9,5c.1,0,.1,0,.1.1h.1l.8,1.2.3.4.6,1.2.2.3a34.2,34.2,0,0,1,1.3,3.4v.3a3.9,3.9,0,0,1,.3,1.4v.6c.1.4.1.9.2,1.3v.5a12,12,0,0,1,0,1.9C148,255.3,142,262.4,134.6,262.4Zm-.9-8h.9c3,0,5.7-3.9,5.9-8.5a4.5,4.5,0,0,0-.1-1.1v-.4a2.5,2.5,0,0,0-.1-.8v-.3c-.1-.3-.1-.5-.2-.8a.4.4,0,0,0-.1-.3,6.2,6.2,0,0,0-.7-1.9v-.2l-.3-.6-.2-.2a4.3,4.3,0,0,0-.4-.7h-.1a5.2,5.2,0,0,0-3.4-2c-3.2-.2-6,3.7-6.1,8.4a11,11,0,0,0,2,7.1v.2l.4.5h.1a4.4,4.4,0,0,0,1.1.9h.2l.4.2h.2l.4.2h.1Z"/><path class="cls-3" d="M322.5,398.1h-1.6c0-.1,0-.1-.1-.1-4.6-.6-8-3.4-9.1-7.4,0-.3-.1-.5-.1-.8s-.1-.2-.1-.3a.7.7,0,0,0-.1-.5v-1.2a2.5,2.5,0,0,1,.1-.8v-.2a1.1,1.1,0,0,1,.1-.5v-.4a.6.6,0,0,1,.1-.4.3.3,0,0,1,.1-.2,1.4,1.4,0,0,1,.2-.6h0l.3-.6.2-.3.2-.3h0l.3-.4.2-.3.3-.3c0-.1.1-.1.1-.2s.2-.2.3-.3h.1l.6-.6h.1l.5-.5a4.4,4.4,0,0,0,1.2-1.4c1.1-4.9,4.7-16.3,13.8-17.8a16.5,16.5,0,0,1,7.8.3l.7.3.5.2h.1a13.1,13.1,0,0,1,3.4,2.4l.6.6c0,.1.1.1.1.2l.6.7a.1.1,0,0,1,.1.1l.6.8c2.3,3.3,3,6.3,4.1,11.3a23.3,23.3,0,0,0,1.9,2.7,15.4,15.4,0,0,1,1.7,2.4,9.4,9.4,0,0,1,1.3,4.4,3.4,3.4,0,0,1-.1,1,4.1,4.1,0,0,1-.1,1.1h0a6.6,6.6,0,0,1-.6,2c0,.1,0,.2-.1.2l-.3.8c-.1.1-.1.1-.1.2h0l-.6.9a.3.3,0,0,0-.1.2l-.6.6v.2l-.9.8a10.3,10.3,0,0,1-6.4,2.2h0a16.9,16.9,0,0,1-7.2-2,13.8,13.8,0,0,0-2.8-1h-.3a5.9,5.9,0,0,0-1.8.6,50,50,0,0,1-6.3,2.2l-.9.3h-2Zm-.4-7.9h.4v0h.6a45.2,45.2,0,0,0,5.5-2,12.4,12.4,0,0,1,4-1.1h1.2a14.9,14.9,0,0,1,6,1.7,10.3,10.3,0,0,0,4,1.3h0a2.6,2.6,0,0,0,1.6-.6h.1v-.2h0V389h.1a4.3,4.3,0,0,0,.1-.5h0v-.6a.8.8,0,0,0-.2-.6l-1.1-1.6a15.6,15.6,0,0,1-3.4-5.8c-1.1-4.9-1.5-6.5-2.8-8.5a1,1,0,0,1-.4-.5h-.1l-.2-.2h-.1l-.3-.4-1.2-.8h-.3a8.1,8.1,0,0,0-4.2-.1c-3.3.6-6.2,6.3-7.4,11.8A10.8,10.8,0,0,1,321,386l-.6.5c0,.1,0,.1-.1.1h0l-.3.3v.2l-.2.2h-.1l-.2.3v.2h-.1v.2h0c0,.1.1.2.1.3s2,1.4,2.4,1.5h.3Z"/><path class="cls-3" d="M311.9,373.7h-1.4c0-.1-.1-.1-.2-.1h-.4l-.5-.2h-.2l-.3-.2h-.2l-.4-.2-.2-.2h-.2a.1.1,0,0,0-.1-.1l-.2-.2a.1.1,0,0,1-.1-.1h-.3a9.5,9.5,0,0,1-1.8-2.9,7.7,7.7,0,0,1,.1-5.8,5.5,5.5,0,0,1,3.3-2.9,6.1,6.1,0,0,1,4.2.3l.7.3a.1.1,0,0,0,.1.1l.4.3.2.2.4.3.2.2c.1,0,.2.2.3.3h.1l.4.5a.1.1,0,0,0,.1.1h.1c0,.1.1.2.2.4h.1l.2.5a.3.3,0,0,1,.1.2l.3.6a7.3,7.3,0,0,1-.1,5.8,5.3,5.3,0,0,1-3.3,2.9l-.7.2h-.9Zm-2.2-6.1h1l.4-.9.4-.2h0l-.3.2.2-.6v-.2h-.1l-1.4,1.4-.3.2h.1Zm.6-1.2-.4.6,1.2-1.1h0A1.6,1.6,0,0,0,310.3,366.4Z"/><path class="cls-3" d="M322.5,361.5h-1.4l-.7-.2h-.2l-.3-.2h-.3l-.5-.2-.5-.4-.3-.2h-.2l-.3-.3-.3-.2-.3-.3a.3.3,0,0,0-.1-.2l-.2-.3a7.7,7.7,0,0,1-1.8-3.6,8.3,8.3,0,0,1,.9-6.4,6.6,6.6,0,0,1,8.8-2l.7.5h.1l.5.4h.2l.4.5h.1l.5.6h0l.5.6v.2l.3.6h.1c0,.2.1.3.2.5v.2l.3.8a8.5,8.5,0,0,1-1,6.5,6.4,6.4,0,0,1-4.3,2.8h-1Z"/><path class="cls-3" d="M352.9,369.6h0a6,6,0,0,1-2.7-.6l-.6-.4h-.2l-.6-.4a.2.2,0,0,0-.2-.2l-.3-.4h-.2l-.3-.6h-.2c-.1-.2-.1-.4-.2-.5s-.1-.1-.1-.2-.1-.3-.2-.5h0a.3.3,0,0,0-.1-.2c0-.1-.1-.3-.1-.4a.8.8,0,0,1-.1-.4c0-.1-.1-.2-.1-.3v-.3a.4.4,0,0,0-.1-.3h0v-.9a10.2,10.2,0,0,1,1-3.9,8.4,8.4,0,0,1,7.1-4.8,6.6,6.6,0,0,1,2.7.6,6.3,6.3,0,0,1,3.1,3.5l.3.8v.2c0,.2.1.4.1.6v.2a1.7,1.7,0,0,1,.1.7h0a2.2,2.2,0,0,1-.1.8h0a1.7,1.7,0,0,1-.1.7v.2h0c-.1.2-.1.4-.2.5v.3c-.1.2-.2.3-.2.5a.4.4,0,0,0-.1.3l-.3.7A8.4,8.4,0,0,1,352.9,369.6Z"/><path class="cls-3" d="M338.7,359.3h-1.2l-.9-.3h-.2l-.6-.3h-.3l-.6-.4a.1.1,0,0,0-.1-.1l-1.2-1.3h0a2.1,2.1,0,0,1-.4-.6h-.1a8.3,8.3,0,0,1-.9-5.4c.7-3.7,3.5-6.4,6.9-6.4h1.2a6.3,6.3,0,0,1,4.2,3h.1l.3.6v.2a1.7,1.7,0,0,0,.2.5v.2a8,8,0,0,1,.3,1.5.4.4,0,0,0,.1.3V352c0,.3-.1.5-.1.8C345,356.6,342.1,359.3,338.7,359.3Zm-.6-7.8a.8.8,0,0,0,.7.3h.2l.2-.5h-1.1Zm3.4-1.5-3.3,1.1h.5Z"/><path class="cls-5" d="M265.2,214.3h0a14.5,14.5,0,0,1-12.4-7.2,15,15,0,0,1-1.8-6.8,13.8,13.8,0,0,1-4.8-5.1,14.2,14.2,0,0,1,5.4-19.4,17.3,17.3,0,0,1,8.8-2h1.4a30.3,30.3,0,0,0,7.5-.6c4.8-1.2,38.3-20.6,42.2-24.5a26.8,26.8,0,0,0,4.4-6c1.6-2.7,3.3-5.6,7-7.7a14.3,14.3,0,0,1,19.4,5.5,13.2,13.2,0,0,1,1.8,6.7,15,15,0,0,1,4.9,5.1,14.3,14.3,0,0,1-5.5,19.4,16.4,16.4,0,0,1-8.8,2h-1.4a25.8,25.8,0,0,0-7.4.7c-4.9,1.2-38.4,20.6-42.2,24.4a27.5,27.5,0,0,0-4.5,6c-1.6,2.8-3.3,5.6-7,7.7A14,14,0,0,1,265.2,214.3Zm-4.8-32.6c-2.1,0-3.4.1-4.9,1a6.3,6.3,0,0,0,1,11.5,4,4,0,0,1,2.6,4.6,6.2,6.2,0,0,0,.6,4.4,6.3,6.3,0,0,0,5.5,3.2h0a5.5,5.5,0,0,0,3.1-.8c1.8-1,2.6-2.3,4.1-4.8a38.2,38.2,0,0,1,5.7-7.6c4.4-4.4,39-24.8,45.9-26.5a31.2,31.2,0,0,1,7.9-.9h2.8c2.1,0,3.5-.1,5-1a6.4,6.4,0,0,0,2.4-8.6,6.7,6.7,0,0,0-3.5-2.9,3.9,3.9,0,0,1-2.5-4.5,6.4,6.4,0,0,0-.7-4.5,6.2,6.2,0,0,0-5.5-3.2,6.8,6.8,0,0,0-3.1.8c-1.8,1-2.6,2.3-4.1,4.8a34.6,34.6,0,0,1-5.7,7.6c-4.4,4.4-39,24.8-45.9,26.5a31.2,31.2,0,0,1-7.9.9h-2.8Z"/><path class="cls-1" d="M330.8,38.1h0a12.6,12.6,0,0,1-2.7-.4,11.4,11.4,0,0,1-5-3.8,9.2,9.2,0,0,0-2.2-2.2,26.2,26.2,0,0,0-5.6-2.7l-1.8-.5a20.7,20.7,0,0,0-6.1-1.2h-.1a9.9,9.9,0,0,0-3,.5,12.2,12.2,0,0,1-3.5.6,8.7,8.7,0,0,1-2.8-.5,9.1,9.1,0,0,1-5.6-11.7,9.2,9.2,0,0,1,1.8-3.2,9.2,9.2,0,0,1,.5-3.7,9.2,9.2,0,0,1,8.7-6.6,7.5,7.5,0,0,1,2.6.4,10,10,0,0,1,5.1,3.8,9.2,9.2,0,0,0,2.2,2.2,28.5,28.5,0,0,0,5.6,2.6l1.8.6a24.4,24.4,0,0,0,6.1,1.1h.1a9.9,9.9,0,0,0,3-.5,17.3,17.3,0,0,1,3.5-.5,8.5,8.5,0,0,1,8,5.1,9.9,9.9,0,0,1,.4,7,10.6,10.6,0,0,1-1.8,3.3,9,9,0,0,1-.5,3.6A9.3,9.3,0,0,1,330.8,38.1ZM307.3,19.4h.2a36.6,36.6,0,0,1,8.4,1.5l1.8.6a34.1,34.1,0,0,1,7.7,3.7,19.2,19.2,0,0,1,3.8,3.6c.8,1.1,1,1.3,1.4,1.4s1.1-.3,1.4-1.2a1.6,1.6,0,0,0,0-1.2,4.1,4.1,0,0,1,1.5-4.7,2,2,0,0,0,.8-1,1.9,1.9,0,0,0-.1-1.3.8.8,0,0,0-.5-.5h-.3l-1.5.4a19.9,19.9,0,0,1-5,.7h-.2a36.6,36.6,0,0,1-8.4-1.5l-1.8-.6a32.2,32.2,0,0,1-7.7-3.7,16.7,16.7,0,0,1-3.8-3.6c-.8-1-1-1.2-1.4-1.3s-1.2.2-1.4,1.1a1.3,1.3,0,0,0,0,1.2,4.1,4.1,0,0,1-1.6,4.8,2.5,2.5,0,0,0-.7.9c-.3.9.1,1.7.5,1.8h.4l1.5-.3A18.5,18.5,0,0,1,307.3,19.4Z"/><path class="cls-2" d="M94.4,229.9l-1.6-.3a115.1,115.1,0,0,1-17.3-10.2c-12.1-8.8-18.3-17.8-18.3-26.7,0-14,8.3-23.4,20.6-23.4a21,21,0,0,1,16.6,7.6,21.4,21.4,0,0,1,16.7-7.6c12.3,0,20.6,9.4,20.6,23.4,0,8.9-6.2,17.9-18.3,26.7a115.1,115.1,0,0,1-17.3,10.2A5.1,5.1,0,0,1,94.4,229.9ZM77.8,177.2c-9.4,0-12.7,8-12.7,15.5,0,12.2,19.9,24.3,29.3,28.9,9.5-4.6,29.4-16.7,29.4-28.9,0-7.5-3.3-15.5-12.7-15.5s-12.9,8.3-13,8.4a4,4,0,0,1-3.7,2.6h0a4,4,0,0,1-3.6-2.6C90.6,185.3,87.3,177.2,77.8,177.2Z"/><path class="cls-2" d="M97.1,216.1a3.8,3.8,0,0,1-3.5-2.1,3.9,3.9,0,0,1,1.6-5.3c8-4.3,16.8-11.4,16.8-14.8,0-1.7-.4-4.5-3.3-4.5a4,4,0,1,1,0-7.9c6.6,0,11.2,5.1,11.2,12.4,0,9.7-16,19.1-21,21.7A3.1,3.1,0,0,1,97.1,216.1Z"/><path class="cls-4" d="M367.4,191.9a3.2,3.2,0,0,1-1.6-.4c-2.3-1-13.9-6.7-13.9-15.2,0-6.3,4-10.7,9.7-10.7a9.5,9.5,0,0,1,5.8,1.8,9.5,9.5,0,0,1,5.8-1.8c5.8,0,9.8,4.4,9.8,10.7,0,8.5-11.6,14.2-14,15.2A2.9,2.9,0,0,1,367.4,191.9Zm-5.8-18.4c-1.2,0-1.9.9-1.9,2.8s3.8,5.2,7.7,7.2c3.9-2,7.7-5.2,7.7-7.2s-.6-2.8-1.9-2.8a2.2,2.2,0,0,0-2.1,1.3,3.9,3.9,0,0,1-3.7,2.5,4,4,0,0,1-3.7-2.5A2.1,2.1,0,0,0,361.6,173.5Z"/><path class="cls-6" d="M381.9,374.3a4.5,4.5,0,0,1-1.6-.3c-2.3-1.1-13.9-6.7-13.9-15.2,0-6.3,4-10.7,9.7-10.7a10.2,10.2,0,0,1,5.8,1.7,10.2,10.2,0,0,1,5.8-1.7c5.8,0,9.8,4.4,9.8,10.7,0,8.5-11.6,14.1-14,15.2A4.1,4.1,0,0,1,381.9,374.3Zm-5.8-18.4c-1.2,0-1.9,1-1.9,2.9s4.1,5.2,7.7,7.2c3.9-2.1,7.7-5.3,7.7-7.2s-.6-2.9-1.9-2.9a2.2,2.2,0,0,0-2.1,1.4,4,4,0,0,1-3.7,2.5h0a4.1,4.1,0,0,1-3.7-2.6A2.2,2.2,0,0,0,376.1,355.9Z"/><path class="cls-1" d="M455.5,207.7l-1.6-.3c-2.3-1.1-13.9-6.7-13.9-15.3,0-6.3,4-10.7,9.7-10.7a10,10,0,0,1,5.8,1.8,10.6,10.6,0,0,1,5.9-1.8c5.7,0,9.7,4.4,9.7,10.7,0,8.6-11.6,14.2-13.9,15.3A5.1,5.1,0,0,1,455.5,207.7Zm-5.8-18.4c-1.2,0-1.8,1-1.8,2.8s4,5.3,7.7,7.3c3.9-2.1,7.6-5.3,7.6-7.3s-.6-2.8-1.8-2.8a2.4,2.4,0,0,0-2.2,1.3,3.9,3.9,0,0,1-7.3,0A2.5,2.5,0,0,0,449.7,189.3Z"/><path class="cls-4" d="M322,92.2a4.5,4.5,0,0,1-4.5-4.4,4.6,4.6,0,0,1,4.5-4.7h0a4.7,4.7,0,0,1,4.6,4.5,5.1,5.1,0,0,1-1.3,3.3,4.8,4.8,0,0,1-3.2,1.3Z"/><path class="cls-4" d="M368.9,92.2a4.5,4.5,0,0,1-4.5-4.5,4.4,4.4,0,0,1,1.3-3.2,5,5,0,0,1,3.2-1.4h0a4.7,4.7,0,0,1,4.6,4.5,5.1,5.1,0,0,1-1.3,3.3,4.8,4.8,0,0,1-3.2,1.3Z"/><path class="cls-1" d="M346.1,106a6.9,6.9,0,0,1-4.7-2l-.2-.2c-1.3-1-3.4-2.6-3.4-5.3a5.5,5.5,0,0,1,3.8-5.3,12.6,12.6,0,0,1,4.4-.7h.1a4,4,0,0,1,2.8,6.7,4,4,0,0,1-2.7,6.8Z"/><path class="cls-1" d="M346.1,106a4,4,0,0,1-3.9-3.9,3.9,3.9,0,0,1,1.1-2.8,4,4,0,0,1-1.2-2.8,3.9,3.9,0,0,1,3.9-4c7.4-.1,8.4,4,8.4,5.8s-2,4.3-3.2,5.4l-.3.2a7.4,7.4,0,0,1-4.7,2.1Z"/><path class="cls-1" d="M339.3,116.2a10.7,10.7,0,0,1-8.8-4.6,3.9,3.9,0,0,1,.9-5.5,4,4,0,0,1,5.5,1,3,3,0,0,0,2.4,1.2,2.9,2.9,0,0,0,2.1-.9,3,3,0,0,0,.8-2.1,3.9,3.9,0,0,1,3.9-3.9h.1a3.9,3.9,0,0,1,3.9,3.8,10.9,10.9,0,0,1-10.7,11Z"/><path class="cls-1" d="M353,116a10.8,10.8,0,0,1-10.8-10.7,3.9,3.9,0,0,1,3.9-3.9h.1a3.9,3.9,0,0,1,3.9,3.8,2.9,2.9,0,0,0,3,2.9,2.8,2.8,0,0,0,2.3-1.3,4,4,0,1,1,6.6,4.4,10.6,10.6,0,0,1-8.8,4.8Z"/><path class="cls-6" d="M343.4,129.1c-13.4,0-26.6-1.5-35-9.6-5.5-5.4-8.3-13.1-8.4-23.3a70.2,70.2,0,0,1,1.4-14.8c.6-2.7,6.2-27,23.1-37.6a46.1,46.1,0,0,1,20.9-6.5,4,4,0,1,1,.1,7.9c-4.1,0-11.4,1.9-16.8,5.3C317.2,57.7,311,74.3,309.1,83a60.8,60.8,0,0,0-1.2,13.1c.1,8,2.1,13.9,6.1,17.7,6.9,6.8,20.2,7.5,32.3,7.4a3.9,3.9,0,0,1,4,3.8,3.9,3.9,0,0,1-3.9,4Z"/><path class="cls-6" d="M346.4,129a3.9,3.9,0,1,1-.1-7.8c24.8-.4,38.1-4.7,37.9-26.2a65.3,65.3,0,0,0-1.5-13c-2.1-8.7-8.7-25.1-20.3-31.9a37.7,37.7,0,0,0-16.9-4.9h-.1a3.9,3.9,0,0,1-3.9-3.9,3.9,3.9,0,0,1,3.9-4c5.1-.1,13.9,1.8,21,6,17.1,10.1,23.3,34.1,23.9,36.8a69.7,69.7,0,0,1,1.8,14.8c.3,29.4-21.8,33.8-45.7,34.1Z"/><path class="cls-6" d="M345.8,77.8a4,4,0,0,1-4-3.9,4.1,4.1,0,0,1,3.9-4c4.4,0,5-1.3,7-5.5a32.6,32.6,0,0,1,4.1-7.3,27.6,27.6,0,0,1,12.3-9.5,4,4,0,0,1,2.5,7.5,19,19,0,0,0-8.5,6.8,28.5,28.5,0,0,0-3.3,5.8c-2.2,4.7-4.7,10-14,10.1Z"/><path class="cls-6" d="M345.5,77.8c-9,0-11.6-5.1-13.9-9.7a29.2,29.2,0,0,0-3.4-5.8,19.8,19.8,0,0,0-8.6-6.5,3.9,3.9,0,0,1,2.2-7.5,27.2,27.2,0,0,1,12.6,9.1,38.8,38.8,0,0,1,4.3,7.2c2.1,4.1,2.7,5.4,7,5.3a4,4,0,0,1,4,3.9,3.9,3.9,0,0,1-3.9,4Z"/><path class="cls-6" d="M305.4,83.4a4,4,0,0,1-3.6-2.2c-6.9-14.7-4.6-34.9-4.5-35.8a4,4,0,0,1,3.8-3.5c.6,0,14.8-.2,23.5,4.1a3.9,3.9,0,0,1,1.8,5.3,3.8,3.8,0,0,1-5.2,1.8c-4.5-2.2-11.6-3-16.4-3.2-.3,6-.2,18.6,4.1,27.9a3.9,3.9,0,0,1-1.9,5.3A4.5,4.5,0,0,1,305.4,83.4Z"/><path class="cls-6" d="M386.1,82.3l-1.6-.3a4,4,0,0,1-2-5.2c4.2-9.5,3.9-22,3.5-28.1-4.3.4-11.6,1.2-16.3,3.7a3.9,3.9,0,0,1-5.3-1.6,4,4,0,0,1,1.7-5.4c8.6-4.5,22.8-4.7,23.4-4.7h0a3.8,3.8,0,0,1,3.9,3.4c.2.8,2.9,21-3.7,35.8A3.9,3.9,0,0,1,386.1,82.3Z"/><path class="cls-1" d="M226,103.5a4,4,0,0,1-2.9-1.2,4,4,0,0,1,.1-5.6l10.2-10a4,4,0,0,1,5.6,0,4,4,0,0,1-.1,5.6l-10.2,10A3.7,3.7,0,0,1,226,103.5Z"/><path class="cls-1" d="M151.8,103.5a3.9,3.9,0,0,1-2.8-1.2l-10.2-10a4,4,0,0,1-.1-5.6,4,4,0,0,1,5.6,0l10.3,10a4,4,0,0,1,0,5.6A3.9,3.9,0,0,1,151.8,103.5Z"/><path class="cls-1" d="M153.9,165.5a13.2,13.2,0,1,1,13.2-13.2A13.2,13.2,0,0,1,153.9,165.5Zm0-18.5a5.3,5.3,0,0,0,0,10.6,5.3,5.3,0,0,0,0-10.6Z"/><path class="cls-1" d="M223.8,165.5A13.2,13.2,0,1,1,237,152.3,13.3,13.3,0,0,1,223.8,165.5Zm0-18.5a5.3,5.3,0,1,0,5.3,5.3A5.3,5.3,0,0,0,223.8,147Z"/><path class="cls-4" d="M145.7,203.6a3.9,3.9,0,0,1-3.9-3.5c-1.7-14.9-6.6-24.1-11.3-33s-9.8-18.5-9.6-32.6c.5-28.6,23.4-43.2,68-43.2a3.9,3.9,0,0,1,3.9,4,3.8,3.8,0,0,1-3.9,3.9c-59.5,0-60,26.7-60.1,35.4-.2,12.1,3.9,19.8,8.6,28.8s10.3,19.4,12.2,35.8a3.8,3.8,0,0,1-3.4,4.3Z"/><path class="cls-4" d="M232,203.6h-.4a3.9,3.9,0,0,1-3.5-4.3c1.9-16.4,7.4-26.7,12.2-35.8s8.9-16.7,8.7-28.8c-.2-8.7-.7-35.4-60.1-35.4a3.9,3.9,0,0,1-4-3.9,4,4,0,0,1,4-4c44.6,0,67.4,14.6,67.9,43.2.3,14.1-4.5,23-9.5,32.6s-9.6,18.1-11.4,33A3.9,3.9,0,0,1,232,203.6Z"/><path class="cls-4" d="M188.9,234.5c-17.7,0-47.4-4-47.4-31.2,0-12.6,6-16.8,15.9-23.8l1.5-1,1.7-1.1c5.6-3.7,13.2-8.7,13.9-43.6a72,72,0,0,0-7.9-34.6,3.9,3.9,0,1,1,6.8-4c.4.6,9.5,16.3,9,38.8-.7,36-8.7,44.2-17.5,50l-1.4.9-1.6,1.1c-9.6,6.8-12.5,8.8-12.5,17.3,0,15.5,13.3,23.3,39.5,23.3a4,4,0,0,1,0,7.9Z"/><path class="cls-4" d="M188.9,234.5a4,4,0,1,1,0-7.9c26.2,0,39.5-7.8,39.5-23.3,0-8.5-2.9-10.5-12.6-17.3l-1.5-1.1-1.5-.9c-8.8-5.8-16.7-14-17.5-50-.4-22.5,8.7-38.2,9.1-38.8a3.9,3.9,0,0,1,5.4-1.4,4,4,0,0,1,1.3,5.4,73.4,73.4,0,0,0-7.9,34.6c.7,34.9,8.4,39.9,14,43.6a9.1,9.1,0,0,1,1.6,1.1l1.5,1c10,7,15.9,11.2,15.9,23.8C236.2,230.5,206.6,234.5,188.9,234.5Z"/><path class="cls-1" d="M104.5,154.2c-5.9,0-10.4-5.4-13.7-16.6-2.3-7.5-3.9-17.7-4.5-27.4-.5-7.6,1.3-13.5,5.2-17.7,6.1-6.4,16.1-7.1,23.1-7.1h27a4.2,4.2,0,0,1,3.6,2.4,4.1,4.1,0,0,1-.7,4.2s-5.8,6.9-13.9,28.1c-5.3,13.9-12.6,25.6-19.4,31.3A10.5,10.5,0,0,1,104.5,154.2Zm10.1-61c-8.8,0-14.3,1.5-17.4,4.7s-3.4,6.5-3,11.9c1.2,21.2,7,36.5,10.3,36.5.1,0,.6,0,1.6-.8,5.8-4.9,12.4-15.6,17.1-28.1a168.3,168.3,0,0,1,11.1-24.1Z"/><path class="cls-1" d="M273.3,154.2h0a10.3,10.3,0,0,1-6.7-2.7c-7.2-5.9-14.8-17.9-19.9-31.3C238.6,98.9,233.2,92,233.1,92a4.2,4.2,0,0,1-.5-4.2,4.1,4.1,0,0,1,3.5-2.3h27.1c7,0,17,.7,23.1,7.1,3.9,4.2,5.6,10.1,5.2,17.7a132.8,132.8,0,0,1-4.5,27.4C283.6,148.8,279.2,154.2,273.3,154.2Zm-30-60.9a197.7,197.7,0,0,1,10.8,24.1c4.6,12,11.5,23,17.5,28.1,1,.8,1.5.8,1.7.8,3.3,0,9-15.3,10.3-36.5.3-5.4-.7-9.3-3.1-11.9s-8.5-4.7-17.3-4.7Z"/><path class="cls-1" d="M188.9,213.3c-5.7,0-9.1-2.9-12.1-5.4l-1.2-1.1-.4-.3c-4.3-3.5-9.2-7.6-9.2-12.9,0-12.3,17.2-12.3,22.9-12.3a3.9,3.9,0,1,1,0,7.8c-5.6,0-15,.6-15,4.5,0,1.6,4,4.9,6.3,6.8l.4.4a6.9,6.9,0,0,1,1.3,1.1c2.8,2.3,4.3,3.5,7,3.5a4,4,0,0,1,0,7.9Z"/><path class="cls-1" d="M188.9,213.3a4,4,0,1,1,0-7.9c2.6,0,4.2-1.2,6.9-3.5l1.3-1.1.4-.4c2.4-1.9,6.3-5.2,6.3-6.8,0-3.9-9.3-4.5-14.9-4.5a3.9,3.9,0,1,1,0-7.8c5.6,0,22.8,0,22.8,12.3,0,5.3-4.9,9.4-9.2,12.9l-.3.3-1.3,1.1C197.9,210.4,194.6,213.3,188.9,213.3Z"/><path class="cls-1" d="M194.6,199.4a3.6,3.6,0,0,1-2.4-.9h-1.8a3.9,3.9,0,1,1-.4-7.8,15.7,15.7,0,0,1,3.9.1c4.3.6,4.6,3.8,4.7,4.4a4,4,0,0,1-3.8,4.2Z"/><path class="cls-1" d="M179.4,222.8a13.6,13.6,0,0,1-11.1-5.8,4,4,0,0,1,1-5.5,3.9,3.9,0,0,1,5.5,1,5.7,5.7,0,0,0,4.6,2.4,5.5,5.5,0,0,0,5.5-5.5,4,4,0,0,1,4-4,3.9,3.9,0,0,1,3.9,4A13.4,13.4,0,0,1,179.4,222.8Z"/><path class="cls-1" d="M198.4,222.8a13.5,13.5,0,0,1-13.5-13.4,4,4,0,0,1,4-4,3.9,3.9,0,0,1,3.9,4,5.6,5.6,0,0,0,5.6,5.5,5.4,5.4,0,0,0,4.5-2.4,4,4,0,1,1,6.5,4.5A13.4,13.4,0,0,1,198.4,222.8Z"/><path class="cls-4" d="M139.9,141.5a3.7,3.7,0,0,1-2.4-.8,4.1,4.1,0,0,1-.7-5.6,24.4,24.4,0,0,1,10-6.9c4.7-1.8,9.5-2.3,13.2-1.4a3.9,3.9,0,0,1,2.9,4.7,4,4,0,0,1-4.8,2.9c-1.6-.4-4.7-.3-8.4,1.2A16.6,16.6,0,0,0,143,140,3.9,3.9,0,0,1,139.9,141.5Z"/><path class="cls-4" d="M237.8,141.5a4,4,0,0,1-3.1-1.5,16.9,16.9,0,0,0-6.6-4.4,15.1,15.1,0,0,0-8.5-1.2,3.9,3.9,0,0,1-1.8-7.6c3.7-.9,8.5-.4,13.1,1.4a24.4,24.4,0,0,1,10,6.9,4,4,0,0,1-.6,5.6A3.8,3.8,0,0,1,237.8,141.5Z"/><path class="cls-4" d="M65.9,247a3.7,3.7,0,0,1-2.6-1,3.8,3.8,0,0,1-.3-5.5l7.1-8a4,4,0,0,1,5.9,5.3l-7.2,7.9A3.7,3.7,0,0,1,65.9,247Z"/><path class="cls-4" d="M73.4,246.7a3.8,3.8,0,0,1-2.6-1.1l-7.9-7.1a4,4,0,0,1-.3-5.6,4,4,0,0,1,5.6-.3l7.9,7.2a4,4,0,0,1-2.7,6.9Z"/><path class="cls-5" d="M161.3,385.6a3.7,3.7,0,0,1-2.6-1,4,4,0,0,1-.3-5.6l2.7-2.9a3.9,3.9,0,1,1,5.8,5.2l-2.7,3A3.6,3.6,0,0,1,161.3,385.6Z"/><path class="cls-5" d="M164.1,385.5a4,4,0,0,1-2.6-1.1l-3-2.6a4,4,0,1,1,5.3-5.9l3,2.7a4.1,4.1,0,0,1,.3,5.6A4.3,4.3,0,0,1,164.1,385.5Z"/><path class="cls-3" d="M300,143.3a4,4,0,0,1-2.9-6.6l4-4.5a4,4,0,0,1,5.9,5.3l-4.1,4.5A3.9,3.9,0,0,1,300,143.3Z"/><path class="cls-3" d="M304.3,143a3.9,3.9,0,0,1-2.7-1l-4.4-4a3.9,3.9,0,0,1-.3-5.6,4,4,0,0,1,5.6-.3l4.4,4.1a3.9,3.9,0,0,1-2.6,6.8Z"/><path class="cls-2" d="M358.9,156.9a3.7,3.7,0,0,1-2.6-1,3.9,3.9,0,0,1-.3-5.6l10.3-11.4a3.9,3.9,0,0,1,5.8,5.3l-10.3,11.4A3.6,3.6,0,0,1,358.9,156.9Z"/><path class="cls-2" d="M369.7,156.4a3.8,3.8,0,0,1-2.6-1.1l-11.4-10.2a4,4,0,1,1,5.3-5.9l11.4,10.3a4,4,0,0,1,.3,5.6A4.3,4.3,0,0,1,369.7,156.4Z"/><path class="cls-4" d="M427.3,302.1a3.9,3.9,0,0,1-2.7-1,4.1,4.1,0,0,1-.3-5.6L440,278.2a3.9,3.9,0,0,1,5.5-.3,3.9,3.9,0,0,1,.3,5.6l-15.6,17.3A3.9,3.9,0,0,1,427.3,302.1Z"/><path class="cls-4" d="M443.7,301.3a4.2,4.2,0,0,1-2.6-1l-17.3-15.7a3.9,3.9,0,1,1,5.3-5.8l17.3,15.6a4.1,4.1,0,0,1,.3,5.6A4.3,4.3,0,0,1,443.7,301.3Z"/><path class="cls-4" d="M291.5,405.9a3.7,3.7,0,0,1-2.6-1,3.9,3.9,0,0,1-.3-5.6l8-8.8a3.9,3.9,0,1,1,5.8,5.3l-8,8.8A3.7,3.7,0,0,1,291.5,405.9Z"/><path class="cls-4" d="M299.9,405.5a3.7,3.7,0,0,1-2.6-1l-8.9-8a4,4,0,1,1,5.3-5.9l8.9,8a4.1,4.1,0,0,1,.3,5.6A3.9,3.9,0,0,1,299.9,405.5Z"/><path class="cls-3" d="M244.6,267.7a10.9,10.9,0,0,1-9.3-5,9.9,9.9,0,0,1-2.4.3,11.1,11.1,0,0,1-9.5-5.3,11,11,0,0,1,.7-12.8,11.2,11.2,0,0,1,9.7-16.9,9.9,9.9,0,0,1,3.8.7,11.1,11.1,0,0,1,8.4-3.8,12.5,12.5,0,0,1,4.2.8,11.7,11.7,0,0,1,6.1,6.1,12.8,12.8,0,0,1,.9,4.8,11.2,11.2,0,0,1-1.5,21,10.9,10.9,0,0,1-1.5,4.6,11.6,11.6,0,0,1-6.9,5.2A12.4,12.4,0,0,1,244.6,267.7Zm-7.2-14.2a3.2,3.2,0,0,1,1.4.3,3.7,3.7,0,0,1,2.5,3.4,3.3,3.3,0,0,0,4.1,2.5,3,3,0,0,0,2-1.5,3.2,3.2,0,0,0,.4-2.5,4,4,0,0,1,.5-4.3,4.2,4.2,0,0,1,4.1-1.3h.3a3.4,3.4,0,0,0,.2-6.7,4,4,0,0,1-3.9-1.8,4.2,4.2,0,0,1,0-4.3,3,3,0,0,0,0-2.6,3,3,0,0,0-1.8-1.7,3.3,3.3,0,0,0-4.3,1.8,4,4,0,0,1-7,1.8,3.1,3.1,0,0,0-2.1-.8,3.2,3.2,0,0,0-2.6,1.2,3.3,3.3,0,0,0,.4,4.7,3.9,3.9,0,0,1,2.1,3.7,3.9,3.9,0,0,1-2.5,3.4,3.3,3.3,0,0,0-1.1,4.6,3.2,3.2,0,0,0,2.8,1.6,4.1,4.1,0,0,0,1.8-.5A3.9,3.9,0,0,1,237.4,253.5Z"/><path class="cls-3" d="M79,164.3a7.7,7.7,0,0,1-5.8-2.6A7.8,7.8,0,0,1,65.8,150a5.9,5.9,0,0,1-.5-2.3,7.4,7.4,0,0,1,1.8-5.7,8.1,8.1,0,0,1,7.6-2.7,8.2,8.2,0,0,1,8-1.2,7.7,7.7,0,0,1,4.3,4.2,9,9,0,0,1,.6,2.2,7.9,7.9,0,0,1-1,13.9,7.8,7.8,0,0,1-5.7,5.7ZM75.1,153a4,4,0,0,1,1.5.3,3.9,3.9,0,0,1,2.1,2.1,4.4,4.4,0,0,1,.9-2.9,4.2,4.2,0,0,1,2.7-1.4,3.5,3.5,0,0,1-2.4-1.7,3.6,3.6,0,0,1-.5-3,4.2,4.2,0,0,1-2.5,1.8,4,4,0,0,1-3-.5,3.8,3.8,0,0,1,1,2.9,4,4,0,0,1-1.4,2.7A4.5,4.5,0,0,1,75.1,153Z"/><path class="cls-3" d="M147.5,372.2h-.1a4.4,4.4,0,0,1-2.9-1.4,18.8,18.8,0,0,1-3.9-7.8c-5.7-.2-10.3-1-13.6-2.5-7-3-12.2-8.2-13.9-13.8a13.2,13.2,0,0,1,1.4-11c2.4-3.7,6.7-5.8,12-5.8a22,22,0,0,1,16.8,8,55,55,0,0,1,6.4,11.4,15.3,15.3,0,0,1,3-.3,18.6,18.6,0,0,1,6.1,1.1,3.6,3.6,0,0,1,2.3,2.2,6.5,6.5,0,0,1-.2,5.1c-.9,2.1-2.8,3.6-5.6,4.6l-.9.3v1a9.2,9.2,0,0,1-2.2,6.8A7,7,0,0,1,147.5,372.2Zm-21-34.4c-1.2,0-4.1.2-5.3,2.2a4.8,4.8,0,0,0-.5,4.4c1,3.4,4.6,6.8,9.4,8.9,2.8,1.2,7.5,1.9,13.3,1.9h.2c-2.1-5.4-4.4-9.8-6.5-12.4A14,14,0,0,0,126.5,337.8Z"/><path class="cls-3" d="M426.7,183.2H414.9a3.8,3.8,0,0,1-3.5-2.3,4.1,4.1,0,0,1-4,.1l-10.2-5.9a4,4,0,0,1-2-3.8h0a3.9,3.9,0,0,1-3.4-2l-5.9-10.2a4,4,0,0,1,.2-4.2,4,4,0,0,1-2-3.4V139.7a4,4,0,0,1,2.3-3.6,3.9,3.9,0,0,1,0-3.9l5.9-10.3a4.1,4.1,0,0,1,3.8-1.9,3.9,3.9,0,0,1,1.9-3.4l10.2-5.9a3.9,3.9,0,0,1,4.3.2,3.8,3.8,0,0,1,3.4-2h11.8a3.7,3.7,0,0,1,3.5,2.3,4.1,4.1,0,0,1,4-.1l10.2,5.9a4,4,0,0,1,2,3.8,3.9,3.9,0,0,1,3.4,2l5.9,10.2a3.8,3.8,0,0,1-.2,4.2,4,4,0,0,1,2,3.4v11.8a3.9,3.9,0,0,1-2.3,3.6,3,3,0,0,1,.4,1,4,4,0,0,1-.4,3l-5.9,10.2a3.9,3.9,0,0,1-3.7,1.9,4.3,4.3,0,0,1-.2,1.1,3.8,3.8,0,0,1-1.8,2.3l-10.2,5.9a3.9,3.9,0,0,1-4.3-.2A3.8,3.8,0,0,1,426.7,183.2Zm-11.5-7.9h7.6v-3.5a3.9,3.9,0,0,1,3.9-4,4,4,0,0,1,4,4v2.7l6.5-3.8-1.8-3.1a4,4,0,0,1,1.5-5.4,3.8,3.8,0,0,1,5.3,1.4l1.4,2.4,3.8-6.6-3.1-1.8a3.9,3.9,0,0,1-1.4-5.4,3.9,3.9,0,0,1,5.3-1.4l2.4,1.4v-7.6H447a4,4,0,0,1,0-7.9h2.7l-3.8-6.6-3.1,1.8a3.9,3.9,0,1,1-3.9-6.8l2.3-1.4-6.5-3.8-1.8,3.2a4,4,0,0,1-6.9-4l1.4-2.3h-7.6v3.5a3.9,3.9,0,0,1-3.9,4,4,4,0,0,1-4-4v-2.7l-6.5,3.8,1.8,3.2a3.9,3.9,0,0,1-6.8,3.9l-1.4-2.4-3.8,6.6,3.1,1.8a4,4,0,0,1,1.5,5.4,3.9,3.9,0,0,1-5.4,1.4l-2.4-1.4v7.6h3.6a4,4,0,0,1,0,7.9h-2.7l3.8,6.6,3.1-1.8a3.9,3.9,0,1,1,3.9,6.8l-2.3,1.4,6.5,3.8,1.8-3.2a4,4,0,0,1,6.9,4Zm6.1-9.8a19.5,19.5,0,1,1,19.4-19.4A19.4,19.4,0,0,1,421.3,165.5Zm0-31a11.6,11.6,0,1,0,11.5,11.6A11.5,11.5,0,0,0,421.3,134.5Z"/><path class="cls-5" d="M117.5,81a3.9,3.9,0,0,1-2.5-1,3.7,3.7,0,0,1-1.4-3.5,21.8,21.8,0,0,1,2.9-8.2,19.2,19.2,0,0,1-4.4-7.4,3.9,3.9,0,0,1,4.1-5.2,21.2,21.2,0,0,1,8.3,2.6,21.6,21.6,0,0,1,12.2-5.1,22,22,0,0,1,20.1,9.1,3.9,3.9,0,0,1,.4,3.9,22.2,22.2,0,0,1-17.9,13h-2.2a21.9,21.9,0,0,1-10.7-2.8,23.4,23.4,0,0,1-7.7,4.3Zm8.4-13.5a3.8,3.8,0,0,1,2.4.9,14.3,14.3,0,0,0,20.6-3.3A14.3,14.3,0,0,0,137.4,61a14,14,0,0,0-9.3,4.9,4,4,0,0,1-2.5,1.4h.3Z"/><path class="cls-3" d="M195.1,80.1l-1.4-.2a3.9,3.9,0,0,1-2.3-5.1,63.6,63.6,0,0,0,3.4-28.1,62.2,62.2,0,0,0-10-27.4,4,4,0,0,1,6.6-4.4,70,70,0,0,1,7.4,62.6A4,4,0,0,1,195.1,80.1Z"/><path class="cls-3" d="M210,82.2c-21.4,0-41.8-11.1-54.6-29.7a4.1,4.1,0,0,1-.4-3.7c9.4-23.3,29.9-39.4,53.7-42a64.8,64.8,0,0,1,45.2,12.3A65.2,65.2,0,0,1,281.7.2a3.8,3.8,0,0,1,3.7.7,4,4,0,0,1,1.5,3.5,72.8,72.8,0,0,1-12.4,33.1A71.3,71.3,0,0,1,293.8,67a3.9,3.9,0,0,1-4.1,5.2,64.5,64.5,0,0,1-31.3-12.3A64.2,64.2,0,0,1,217,81.8,54.8,54.8,0,0,1,210,82.2ZM163.2,49.8c11.3,15.4,28.7,24.5,46.8,24.5,2,0,4.1-.1,6.1-.3a56.6,56.6,0,0,0,38.6-22,3.9,3.9,0,0,1,2.6-1.5,4,4,0,0,1,3,.9,58.7,58.7,0,0,0,23.5,11.8,64.5,64.5,0,0,0-17.2-22.1,4,4,0,0,1-.6-5.5,62.8,62.8,0,0,0,11.9-25.3A57.1,57.1,0,0,0,257.6,27a4,4,0,0,1-5.7.6,56.8,56.8,0,0,0-42.3-13C189.4,16.8,171.8,30.2,163.2,49.8Z"/><path class="cls-3" d="M180.8,53.9a5.7,5.7,0,0,1-5.7-5,5.9,5.9,0,0,1,1.3-4.2,5.5,5.5,0,0,1,3.8-2,5.6,5.6,0,0,1,6.2,5,5,5,0,0,1-1.2,4.1,5.8,5.8,0,0,1-3.8,2.1Zm0-7.9h-.3a2.9,2.9,0,0,0-1.4.8,2.2,2.2,0,0,0-.5,1.7,2.2,2.2,0,0,0,2.4,2,1.9,1.9,0,0,0,1.5-.8A2.3,2.3,0,0,0,183,48,2.3,2.3,0,0,0,180.8,46Z"/><path class="cls-3" d="M199,49.8a4.1,4.1,0,0,1-4-3.6,4,4,0,0,1,3.5-4.3l57.6-6.4a3.9,3.9,0,0,1,4.3,3.5,3.9,3.9,0,0,1-3.4,4.4l-57.6,6.3Z"/><path class="cls-2" d="M199.3,275.8h0a4.2,4.2,0,0,1-3.6-2.2l-3.8-7.7-8.4-1.3a3.8,3.8,0,0,1-3.2-2.6,3.9,3.9,0,0,1,1-4.1l6.1-6-1.4-8.4a3.9,3.9,0,0,1,1.5-3.9,4,4,0,0,1,4.2-.3l7.6,4,7.6-4a3.8,3.8,0,0,1,4.1.3,4.2,4.2,0,0,1,1.6,3.9l-1.5,8.4,6.2,6a4.1,4.1,0,0,1,1,4.1,3.9,3.9,0,0,1-3.2,2.6l-8.5,1.3-3.8,7.7A4,4,0,0,1,199.3,275.8ZM192.5,258l2.6.4a4.1,4.1,0,0,1,3,2.1l1.2,2.4,1.1-2.4a4.1,4.1,0,0,1,3-2.1l2.7-.4-2-1.9a4.1,4.1,0,0,1-1.1-3.5l.5-2.6-2.4,1.3a4,4,0,0,1-3.7,0l-2.3-1.3.4,2.6a3.8,3.8,0,0,1-1.1,3.5Z"/><path class="cls-5" d="M412,104.4h-1.2a4.2,4.2,0,0,1-2.7-3.2l-.9-5.7-5.3-2.6a3.9,3.9,0,0,1-.1-7l5.2-2.7.8-5.8a4.1,4.1,0,0,1,2.6-3.2,4,4,0,0,1,4.1,1l4.1,4.1,5.7-1.1a3.9,3.9,0,0,1,3.9,1.5,4,4,0,0,1,.4,4.2L425.9,89l2.8,5.1a3.9,3.9,0,0,1-4.1,5.8l-5.7-.9-4,4.2A4,4,0,0,1,412,104.4Zm.5-15.2a3.8,3.8,0,0,1,2.1,2.8,4.4,4.4,0,0,1,3.4-1.2,3.9,3.9,0,0,1-.1-3.5,4,4,0,0,1-3.3-1A4.2,4.2,0,0,1,412.5,89.2Z"/><path class="cls-1" d="M158.6,157.8a4.8,4.8,0,0,1-4.9-4.8,4.9,4.9,0,0,1,9.7,0A4.8,4.8,0,0,1,158.6,157.8Z"/><path class="cls-1" d="M228.4,157.8a4.7,4.7,0,0,1-4.8-4.8,4.8,4.8,0,0,1,4.8-4.8,4.9,4.9,0,0,1,4.8,4.8A4.8,4.8,0,0,1,228.4,157.8Z"/><path class="cls-3" d="M438.8,631.1a6.5,6.5,0,0,1-1.4-4.3,11.6,11.6,0,0,1,.7-4,10.3,10.3,0,0,1,1.7-3.3,2.9,2.9,0,0,1,2.1-1.4,12.2,12.2,0,0,1,5-7.5,8.5,8.5,0,0,1,4.5-1.3h.8a4.7,4.7,0,0,1,3.5,1.6,5.6,5.6,0,0,1,1.1,3.7,16.5,16.5,0,0,1-2.2,7.7,24,24,0,0,1-5.4,7.4c-2.2,2-4.2,3-6.1,3S439.7,632.3,438.8,631.1Zm9.3-3.1a27,27,0,0,0,4.7-6.6,16.8,16.8,0,0,0,1.9-6.7,3.8,3.8,0,0,0-.6-2.2,2,2,0,0,0-1.6-1h-1.2a6.4,6.4,0,0,0-4,1.3,9.6,9.6,0,0,0-2.8,3.7,12.2,12.2,0,0,0-1,5.1,16.6,16.6,0,0,0,.3,3.2.8.8,0,0,1-.2.6.5.5,0,0,1-.4.2l-.6-.2c-.1-.1-.3-.2-.4-.4a5.9,5.9,0,0,1-.6-2c-.1-.9-.2-1.6-.2-2.2a4.3,4.3,0,0,0-1.5,2.2,8.3,8.3,0,0,0-.6,3.2,7.1,7.1,0,0,0,.8,3.4,3,3,0,0,0,2.6,1.4C444.4,630.9,446.2,629.9,448.1,628Z"/><path class="cls-3" d="M447.2,645.6a1.3,1.3,0,0,1-.7-.4,1.1,1.1,0,0,1-.2-1.2l5.2-10.3,6.8-13.4a1.8,1.8,0,0,1,1.5-.7,1.5,1.5,0,0,1,.9.2c.2.2.4.4.4.6a.3.3,0,0,0-.1.2,3.7,3.7,0,0,1,1.6-.7,4.2,4.2,0,0,1,1.4-.2,4.3,4.3,0,0,1,2.8.8,2.4,2.4,0,0,1,1,2.1,8.2,8.2,0,0,1-1.7,4.4,14.6,14.6,0,0,1-4.1,4.1,8.6,8.6,0,0,1-5,1.7,2,2,0,0,1-1.1-.2l-.9-.6-6.8,12.8A1.1,1.1,0,0,1,447.2,645.6ZM461,629.4a14.8,14.8,0,0,0,3.3-3.3,5.3,5.3,0,0,0,1.3-3.1,1.7,1.7,0,0,0-.3-1,2.1,2.1,0,0,0-1.2-.3,5.9,5.9,0,0,0-3.8,1.7,15,15,0,0,0-3,4,6.9,6.9,0,0,0-.8,2.5.7.7,0,0,0,.7.8A6.7,6.7,0,0,0,461,629.4Z"/><path class="cls-3" d="M471.6,633.3a3.8,3.8,0,0,1-2.9-1.1,4.1,4.1,0,0,1-1-2.9,9,9,0,0,1,1.4-4.2,16.8,16.8,0,0,1,3.6-4.3,6,6,0,0,1,3.7-1.8,2.8,2.8,0,0,1,2,.6,1.7,1.7,0,0,1,.7,1.4,6.4,6.4,0,0,1-1.3,3.2,14.1,14.1,0,0,1-3.4,3.5,11.7,11.7,0,0,1-4.3,2.2,1.5,1.5,0,0,0,.6.9,2.3,2.3,0,0,0,1.3.3h1.4a9,9,0,0,0,3.6-1.6,19,19,0,0,0,3.4-3.5.9.9,0,0,1,.8-.5,1.1,1.1,0,0,1,.7.3c.2.2.4.4.4.6s-.1.3-.1.4a21.4,21.4,0,0,1-4.6,4.5,13.2,13.2,0,0,1-4.6,2Zm1.4-6.9a11.5,11.5,0,0,0,2.7-2.7,3.8,3.8,0,0,0,1.2-2.1c0-.3-.2-.5-.6-.5a4.2,4.2,0,0,0-2.1,1.1,20.4,20.4,0,0,0-2.3,2.7,13.1,13.1,0,0,0-1.6,3.1A7.9,7.9,0,0,0,473,626.4Z"/><path class="cls-3" d="M481.4,632.3a3.8,3.8,0,0,1-1.4-1.4,4.6,4.6,0,0,1-.5-2q0-1,1.8-5.1c1.1-2.7,2.4-5.6,3.8-8.5l3-6.2a1.8,1.8,0,0,1,.6-.8l.7-.3a.6.6,0,0,1,.6.3,1.1,1.1,0,0,1,.3.8,2.2,2.2,0,0,1-.3,1l-.3.8c-5.3,10.7-8,16.6-8,17.9a2.4,2.4,0,0,0,.5,1.4c.2.4.7.6,1.4.6a7.2,7.2,0,0,0,3.6-1.4,22.9,22.9,0,0,0,3.4-3.5.8.8,0,0,1,.8-.5.9.9,0,0,1,.7.3.7.7,0,0,1,.3.6.6.6,0,0,1-.1.4,20.6,20.6,0,0,1-4.6,4.7,7.5,7.5,0,0,1-4.5,1.4A2.9,2.9,0,0,1,481.4,632.3Z"/><path class="cls-3" d="M490,632.2a2.2,2.2,0,0,1-.8-1.8,9.1,9.1,0,0,1,1.8-5.3,15.3,15.3,0,0,1,4.3-4.1,8.6,8.6,0,0,1,4.5-1.5,2.7,2.7,0,0,1,2,.7,2.9,2.9,0,0,1,.7,2.2,7.5,7.5,0,0,1-.8,3,14.1,14.1,0,0,1-2.1,3.1h.4a4.8,4.8,0,0,0,2.7-.9,11.2,11.2,0,0,0,1.9-1.7.8.8,0,0,1,.8-.5,1.1,1.1,0,0,1,.8.3.9.9,0,0,1,.3.6c0,.2,0,.3-.1.4a7.1,7.1,0,0,1-1.5,1.6,18.3,18.3,0,0,1-2.5,1.5,7.1,7.1,0,0,1-2.8.6l-1.7-.2a14.4,14.4,0,0,1-3.1,1.9,6.6,6.6,0,0,1-3,.7A2.8,2.8,0,0,1,490,632.2Zm6.1-3.1a6.7,6.7,0,0,1-1.3-4.3,5.9,5.9,0,0,1,.2-1.4,10.4,10.4,0,0,0-1.9,2.2,14.1,14.1,0,0,0-1.3,2.4,5.5,5.5,0,0,0-.5,1.8c0,.6.3.9.7.9A6.7,6.7,0,0,0,496.1,629.1Zm3.5-4a4.9,4.9,0,0,0,.7-2.4,1.2,1.2,0,0,0-.3-.9,1,1,0,0,0-.9-.4,1.8,1.8,0,0,0-1.1.5,6,6,0,0,0-.9,1.3,4.7,4.7,0,0,0-.3,1.7,3.3,3.3,0,0,0,1,2.7A13,13,0,0,0,499.6,625.1Z"/><path class="cls-3" d="M503.1,630.5a9.7,9.7,0,0,1,1.3-4.3c.8-1.7,2-3.6,3.3-5.8a1.4,1.4,0,0,1,1.1-.7,1.1,1.1,0,0,1,.8.3.9.9,0,0,1,.3.6.9.9,0,0,1-.1.5l-1,1.6c-1.1,1.9-2,3.4-2.6,4.6a6.1,6.1,0,0,0-.9,2.6c0,.6.2.8.7.8a5.9,5.9,0,0,0,2.9-1.2,21.7,21.7,0,0,0,3.8-3.7,28.2,28.2,0,0,0,3.6-5.4,1.2,1.2,0,0,1,1-.6.9.9,0,0,1,.8.4.7.7,0,0,1,.3.8,8.2,8.2,0,0,1-.6,1.6l-1.6,2.5-1.9,2.9a4.5,4.5,0,0,0-.6,1.9,1,1,0,0,0,.4.9h.6a5.2,5.2,0,0,0,3-1.5,22.6,22.6,0,0,0,3.4-3.5,1,1,0,0,1,.8-.5.9.9,0,0,1,.7.3.7.7,0,0,1,.4.6c0,.2-.1.3-.1.4-3.1,4.1-6.1,6.1-9.1,6.1a2.3,2.3,0,0,1-1.5-.5,1.8,1.8,0,0,1-.7-1.5,2.6,2.6,0,0,1,.3-1.1,13.8,13.8,0,0,1-2.9,2.2,7.4,7.4,0,0,1-3.2.9C504,632.8,503.1,632.1,503.1,630.5Z"/><path class="cls-3" d="M521.6,632.2a5,5,0,0,1-1.4-1.5,3.5,3.5,0,0,1-.5-2v-.8l.3-.6.2-.3c1.3-1.7,2.4-3.2,3.2-4.4a31.3,31.3,0,0,0,2-4.1,1.8,1.8,0,0,1,.8-1.1,2,2,0,0,1,1.1-.3,1.5,1.5,0,0,1,.8.2.7.7,0,0,1,.3.6v.4c0,.2-.1.4-.1.6a5,5,0,0,0,.2,1.2l.5,1.6c.3.9.5,1.6.7,2.1a11.1,11.1,0,0,1,.2,1.9,4.9,4.9,0,0,1-.1,1.2,8.1,8.1,0,0,1-1.2,2.9,7.7,7.7,0,0,1-2.2,2.2,6,6,0,0,1-2.9.8A3.5,3.5,0,0,1,521.6,632.2Zm4.8-2.5a6.4,6.4,0,0,0,1.4-3,4.5,4.5,0,0,0,.1-1.2,9.9,9.9,0,0,0-.3-2.4l-.7-1.8a2.7,2.7,0,0,1-.3-.8,21.4,21.4,0,0,1-1.9,3.6,37.9,37.9,0,0,1-3,4v.5a2.1,2.1,0,0,0,.7,1.8,2.3,2.3,0,0,0,1.6.6A3.1,3.1,0,0,0,526.4,629.7Z"/><path class="cls-3" d="M530.8,632.2a2.5,2.5,0,0,1-.8-1.8,9.5,9.5,0,0,1,1.5-4.8,12.2,12.2,0,0,1,3.6-4.2,7.7,7.7,0,0,1,4.5-1.7,4,4,0,0,1,2,.4c.6.3,1,.6,1.1,1s.7-.7,1-.7a1.4,1.4,0,0,1,.9.3,3,3,0,0,1,.4,1,2.1,2.1,0,0,1-.5,1.1,21.2,21.2,0,0,1-1.3,2l-2,3.1a4.9,4.9,0,0,0-.6,2,1,1,0,0,0,.4.9h.5a5.2,5.2,0,0,0,3-1.5,19.5,19.5,0,0,0,3.4-3.6,1.2,1.2,0,0,1,.8-.4,1.1,1.1,0,0,1,.8.3.9.9,0,0,1,.3.6.8.8,0,0,1-.1.4c-3.1,4.1-6.1,6.1-9.1,6.1a1.9,1.9,0,0,1-1.4-.5,1.9,1.9,0,0,1-.8-1.5,2.6,2.6,0,0,1,.3-1.1,13,13,0,0,1-2.8,2.2,7.5,7.5,0,0,1-3.3.9A2.8,2.8,0,0,1,530.8,632.2Zm5.1-2.9a23.5,23.5,0,0,0,3.7-3.3,5.7,5.7,0,0,0,1.6-3.1,2.1,2.1,0,0,0-.4-1,1.4,1.4,0,0,0-1-.5,6.6,6.6,0,0,0-3.6,1.7,12.5,12.5,0,0,0-2.8,3.6,6.7,6.7,0,0,0-1.2,3.2c0,.5.2.8.6.8A6.2,6.2,0,0,0,535.9,629.3Z"/><path class="cls-3" d="M548.4,632.2a5,5,0,0,1-1.4-1.5,3.5,3.5,0,0,1-.5-2,2.2,2.2,0,0,1,.1-.8,1.4,1.4,0,0,1,.2-.6l.2-.3,3.2-4.4a31.3,31.3,0,0,0,2-4.1,1.8,1.8,0,0,1,.8-1.1,2,2,0,0,1,1.1-.3,1.5,1.5,0,0,1,.8.2.8.8,0,0,1,.4.6c0,.1-.1.2-.1.4s-.1.4-.1.6a5,5,0,0,0,.2,1.2,8.2,8.2,0,0,0,.6,1.6,14.2,14.2,0,0,0,.6,2.1,11.1,11.1,0,0,1,.2,1.9,4.9,4.9,0,0,1-.1,1.2,8.1,8.1,0,0,1-1.2,2.9,7.7,7.7,0,0,1-2.2,2.2,5.7,5.7,0,0,1-2.9.8A3.5,3.5,0,0,1,548.4,632.2Zm4.8-2.5a6.4,6.4,0,0,0,1.4-3,4.5,4.5,0,0,0,.1-1.2,9.9,9.9,0,0,0-.3-2.4l-.7-1.8a2.7,2.7,0,0,1-.3-.8,21.4,21.4,0,0,1-1.9,3.6c-.9,1.4-1.9,2.7-2.9,4a.7.7,0,0,0-.1.5,2.5,2.5,0,0,0,.7,1.8,2.3,2.3,0,0,0,1.6.6A3,3,0,0,0,553.2,629.7Z"/><path class="cls-3" d="M304.8,633.7a1.6,1.6,0,0,1-.5-1.4,4.5,4.5,0,0,1,.5-2c1.4-3.1,4.5-9.6,9.3-19.4a10,10,0,0,0-4.3,3.9,13.3,13.3,0,0,0-2.3,5.9,1.4,1.4,0,0,1-.5,1.1,1.3,1.3,0,0,1-1,.4l-.7-.2a1.2,1.2,0,0,1-.3-.9,19.1,19.1,0,0,1,1.9-5.7,16,16,0,0,1,3.5-4.6,12,12,0,0,1,5-2.6l.2-.4a.9.9,0,0,1,.6-.6l.8-.2.7.2a.5.5,0,0,1,.3.4c0,.2,0,.2-.1.3h.2c2.4,0,4.2.6,5.4,1.9a7.2,7.2,0,0,1,1.7,5.1,17.4,17.4,0,0,1-2.5,8.5,23.1,23.1,0,0,1-6.9,7.7,15.5,15.5,0,0,1-9.3,3.1A2.9,2.9,0,0,1,304.8,633.7ZM315,629a23.6,23.6,0,0,0,5.8-6.8,14.3,14.3,0,0,0,2.3-7.2,4.8,4.8,0,0,0-1.3-3.6,5,5,0,0,0-3.9-1.4h-1l-9.6,19.7a3.4,3.4,0,0,0-.4,1.3q0,.6.9.6A11.5,11.5,0,0,0,315,629Z"/><path class="cls-3" d="M323.1,632a2.3,2.3,0,0,1-.8-1.8,8.7,8.7,0,0,1,1.9-5.4,15,15,0,0,1,4.4-4.3,9.1,9.1,0,0,1,4.7-1.6,2.7,2.7,0,0,1,2,.7,2.8,2.8,0,0,1,.8,2.3,7.5,7.5,0,0,1-.8,3.1,13.1,13.1,0,0,1-2.2,3.2h.4a4.9,4.9,0,0,0,2.8-.9,9.2,9.2,0,0,0,2-1.8,1,1,0,0,1,.8-.5,1.1,1.1,0,0,1,.8.3.9.9,0,0,1,.4.7.8.8,0,0,1-.1.4c-.4.4-.9,1-1.6,1.6a9.3,9.3,0,0,1-2.6,1.5,5.9,5.9,0,0,1-2.9.7,4.8,4.8,0,0,1-1.8-.3,12.1,12.1,0,0,1-3.1,2.1,7.7,7.7,0,0,1-3.2.7A2.8,2.8,0,0,1,323.1,632Zm6.4-3.2a6.3,6.3,0,0,1-1.3-4.4,6.6,6.6,0,0,1,.1-1.5,14.5,14.5,0,0,0-1.9,2.3,10,10,0,0,0-1.3,2.5,4.1,4.1,0,0,0-.5,1.9q0,.9.6.9A7.4,7.4,0,0,0,329.5,628.8Zm3.6-4.1a5.9,5.9,0,0,0,.8-2.5,1.3,1.3,0,0,0-.4-.9,1,1,0,0,0-.9-.4,1.6,1.6,0,0,0-1.1.5,3.4,3.4,0,0,0-.9,1.4,3.3,3.3,0,0,0-.4,1.7,4.1,4.1,0,0,0,1,2.8A9.1,9.1,0,0,0,333.1,624.7Z"/><path class="cls-3" d="M336.7,630.3a10.8,10.8,0,0,1,1.4-4.5c.9-1.7,2-3.7,3.4-5.9a1.3,1.3,0,0,1,1.1-.7l.8.2a.8.8,0,0,1,.4.7,1.7,1.7,0,0,1-.2.5l-1,1.6-2.7,4.7a7.8,7.8,0,0,0-.9,2.8c0,.6.2.8.7.8a4.1,4.1,0,0,0,1.6-.4,10.5,10.5,0,0,0,2.1-1.5,40.2,40.2,0,0,1,4.5-8.7,1.2,1.2,0,0,1,1.1-.7l.8.2a.8.8,0,0,1,.4.7,1.7,1.7,0,0,1-.2.5l-1,1.6-2.7,4.7a7.8,7.8,0,0,0-.9,2.8c0,.6.2.8.7.8s1.7-.6,3.1-1.9a19.2,19.2,0,0,0,3.9-5.3,18,18,0,0,0,1.7-7.9,1.1,1.1,0,0,1,.3-.8.9.9,0,0,1,.7-.3,1.1,1.1,0,0,1,.8.3,1.3,1.3,0,0,1,.4.9,4.6,4.6,0,0,1,.1,1,17.6,17.6,0,0,1-1.9,7.3,25.6,25.6,0,0,1-4.6,6.4c-1.8,1.7-3.4,2.5-4.7,2.5s-2.3-.4-2.6-1.3a7.2,7.2,0,0,1-3.8,1.3C337.7,632.7,336.7,631.9,336.7,630.3Z"/><path class="cls-3" d="M363.6,632.7a2.9,2.9,0,0,1-1.7-2.6,6.3,6.3,0,0,1,.5-2.2,27.2,27.2,0,0,1,1.5-2.8l1-1.9a2.6,2.6,0,0,0,.3-1.1c0-.7-.3-1.1-.8-1.1a4.4,4.4,0,0,0-2.4,1.2,13.4,13.4,0,0,0-2.3,2.5l-1.3,2.4c-.5.9-1.1,2-1.8,3.5l-.7,1.5a1.2,1.2,0,0,1-.5.5.6.6,0,0,1-.5.2,1,1,0,0,1-1.1-1.1,1.1,1.1,0,0,1,.1-.5c2.5-4.8,4.4-8.6,5.9-11.6a1.1,1.1,0,0,1,1.1-.6,1.7,1.7,0,0,1,1,.3c.3.2.3.4.2.6a3.1,3.1,0,0,1,1.3-.6,4,4,0,0,1,1.5-.3,3.6,3.6,0,0,1,1.9.5,1.9,1.9,0,0,1,.7,1.6,3.9,3.9,0,0,1-.5,2,27.3,27.3,0,0,1-1.5,3.1l-1.1,2.3a3,3,0,0,0-.4,1.4c0,.6.3.8,1,.8a5.2,5.2,0,0,0,3-1.5,20.6,20.6,0,0,0,3.5-3.7,1.1,1.1,0,0,1,.9-.5.9.9,0,0,1,.7.3.8.8,0,0,1,.4.7c0,.1-.1.2-.1.4a23.2,23.2,0,0,1-4.7,4.7,7.4,7.4,0,0,1-4.2,1.8Z"/><path class="cls-3" d="M371.6,631.6a3.7,3.7,0,0,1-1.1-3c0-.8.8-3.1,2.5-7.1a1.1,1.1,0,0,1-.8-.3.9.9,0,0,1-.3-.7,1.4,1.4,0,0,1,.5-.9,2.2,2.2,0,0,1,1.5-.4h.1c.9-1.9,1.9-4.2,3.1-6.6l2.6-5.3a2.2,2.2,0,0,1,.7-.9l.7-.2a.9.9,0,0,1,.7.3,1.9,1.9,0,0,1,.2.8,3,3,0,0,1-.3,1.1.3.3,0,0,0-.1.2c-.1.1-.1.3-.2.4-2,3.9-3.7,7.3-5,10.3h3.5l1,.4a1.4,1.4,0,0,1,.3.9,1.3,1.3,0,0,1-.3.8,1.7,1.7,0,0,1-1,.3h-4.5c-1.7,3.9-2.6,6.2-2.6,7a3.3,3.3,0,0,0,.4,1.5c.3.5.8.6,1.5.6a8.1,8.1,0,0,0,3.7-1.5,20.1,20.1,0,0,0,3.5-3.6,1.1,1.1,0,0,1,.9-.5,1.1,1.1,0,0,1,.7.3.9.9,0,0,1,.3.7.8.8,0,0,1-.1.4,19.7,19.7,0,0,1-4.8,4.8,8.1,8.1,0,0,1-4.6,1.5A3.3,3.3,0,0,1,371.6,631.6Z"/><path class="cls-3" d="M381.3,632a2.1,2.1,0,0,1-.8-1.8,9.2,9.2,0,0,1,1.8-5.4,15,15,0,0,1,4.4-4.3,9.1,9.1,0,0,1,4.7-1.6,2.8,2.8,0,0,1,2.1.7,3.2,3.2,0,0,1,.7,2.3,6.2,6.2,0,0,1-.8,3.1,10.8,10.8,0,0,1-2.2,3.2h.4a4.9,4.9,0,0,0,2.8-.9,13.7,13.7,0,0,0,2.1-1.8.8.8,0,0,1,.8-.5l.8.3a1.1,1.1,0,0,1,.3.7.8.8,0,0,1-.1.4,11.9,11.9,0,0,1-1.6,1.6,10.4,10.4,0,0,1-2.5,1.5,6.6,6.6,0,0,1-3,.7,4.8,4.8,0,0,1-1.8-.3,12.1,12.1,0,0,1-3.1,2.1,7.3,7.3,0,0,1-3.1.7A2.5,2.5,0,0,1,381.3,632Zm6.4-3.2c-1-1-1.4-2.4-1.4-4.4a6.6,6.6,0,0,1,.1-1.5,14.5,14.5,0,0,0-1.9,2.3,14.9,14.9,0,0,0-1.3,2.5,5.9,5.9,0,0,0-.5,1.9c0,.6.2.9.7.9A7.6,7.6,0,0,0,387.7,628.8Zm3.6-4.1a7.3,7.3,0,0,0,.7-2.5,1.2,1.2,0,0,0-.3-.9,1,1,0,0,0-.9-.4,1.8,1.8,0,0,0-1.2.5,3.4,3.4,0,0,0-.9,1.4,4.7,4.7,0,0,0-.3,1.7,3.7,3.7,0,0,0,1,2.8A15.7,15.7,0,0,0,391.3,624.7Z"/><path class="cls-3" d="M394.9,630.3a10.4,10.4,0,0,1,1.3-4.5c.9-1.7,2-3.7,3.4-5.9a1.3,1.3,0,0,1,1.2-.7l.8.2a.9.9,0,0,1,.3.7,1.1,1.1,0,0,1-.1.5l-1,1.6c-1.2,2-2.1,3.5-2.7,4.7a6.7,6.7,0,0,0-1,2.8c0,.6.2.8.8.8a4.1,4.1,0,0,0,1.5-.4,10.5,10.5,0,0,0,2.1-1.5,40.2,40.2,0,0,1,4.5-8.7,1.3,1.3,0,0,1,1.2-.7l.8.2a.9.9,0,0,1,.3.7,4.3,4.3,0,0,0-.1.5l-1,1.6-2.8,4.7a7.8,7.8,0,0,0-.9,2.8c0,.6.2.8.7.8s1.7-.6,3.1-1.9a17.4,17.4,0,0,0,3.9-5.3,18,18,0,0,0,1.7-7.9,1,1,0,0,1,1.1-1.1,1.1,1.1,0,0,1,.7.3,1,1,0,0,1,.4.9,4.6,4.6,0,0,1,.1,1,16.2,16.2,0,0,1-1.9,7.3,25.6,25.6,0,0,1-4.6,6.4c-1.8,1.7-3.3,2.5-4.7,2.5s-2.2-.4-2.6-1.3a7.2,7.2,0,0,1-3.8,1.3Q394.9,632.7,394.9,630.3Z"/><path class="cls-3" d="M421.7,632.7a2.9,2.9,0,0,1-1.7-2.6,6.3,6.3,0,0,1,.5-2.2l1.5-2.8,1-1.9a2.6,2.6,0,0,0,.3-1.1c0-.7-.3-1.1-.8-1.1a3.9,3.9,0,0,0-2.3,1.2,11.2,11.2,0,0,0-2.4,2.5l-1.3,2.4c-.5.9-1,2-1.7,3.5l-.8,1.5-.4.5a.7.7,0,0,1-.6.2,1,1,0,0,1-1.1-1.1,1.1,1.1,0,0,1,.1-.5c2.5-4.8,4.5-8.6,5.9-11.6a1.1,1.1,0,0,1,1.1-.6,1.7,1.7,0,0,1,1,.3c.3.2.4.4.2.6a3.5,3.5,0,0,1,1.4-.6,4,4,0,0,1,1.5-.3,3.5,3.5,0,0,1,1.8.5,1.9,1.9,0,0,1,.8,1.6,5.3,5.3,0,0,1-.5,2l-1.5,3.1a17.6,17.6,0,0,0-1.2,2.3,3,3,0,0,0-.4,1.4c0,.6.3.8,1,.8a5.7,5.7,0,0,0,3.1-1.5,31.5,31.5,0,0,0,3.5-3.7,1,1,0,0,1,.8-.5,1.1,1.1,0,0,1,.8.3.9.9,0,0,1,.3.7.8.8,0,0,1-.1.4,23.2,23.2,0,0,1-4.7,4.7,7.4,7.4,0,0,1-4.1,1.8Z"/><path class="cls-5" d="M222.3,634.9c0-10.2,2.5-23.1,7.6-38.6s10.9-30.7,17.5-45.8,14.7-32.9,24.3-53.2c7.1-14.6,11.8-24.6,13.9-29.9a12,12,0,0,1,3.7-4,8.1,8.1,0,0,1,4.5-1.3,6.3,6.3,0,0,1,4.2,1.4,4.3,4.3,0,0,1,1.8,3.7,8.2,8.2,0,0,1-1.1,3.4l-10.2,21.3q-22.3,46.1-33.9,73.4a73.2,73.2,0,0,0,10.6,4.1,29,29,0,0,0,9,1.4,20.8,20.8,0,0,0,10.7-2.9,36.5,36.5,0,0,0,10.2-9.7,5.7,5.7,0,0,1,5-2.5,5.8,5.8,0,0,1,3.8,1.3,3.8,3.8,0,0,1,1.7,3.1,7.2,7.2,0,0,1-.8,2.7c-8.5,12.7-18.7,19.1-30.4,19.1a34.2,34.2,0,0,1-14.3-3.3,201.3,201.3,0,0,1,4,37.9c0,12-1.8,21.8-5.3,29.4s-9.6,11.5-18.2,11.5Q222.3,657.4,222.3,634.9Zm30.5-15.7a164,164,0,0,0-1.4-20.4c-.9-7.1-1.8-13.3-2.9-18.6-10.1,25.2-15.1,43.2-15.1,53.8,0,7.7,2.6,11.5,7.7,11.5C248.9,645.5,252.8,636.7,252.8,619.2Z"/><path class="cls-5" d="M308.7,599.5c-7,0-12.3-2.1-16-6.3s-5.5-9.4-5.5-15.6,2.7-14.3,8-23.2a93.7,93.7,0,0,1,19.3-23c7.6-6.5,14.3-9.7,20.3-9.7s8.4.9,10.7,2.8a9.4,9.4,0,0,1,3.6,7.8c0,5-2.4,10.9-7,17.7a84,84,0,0,1-18.4,18.9,67.8,67.8,0,0,1-23.2,12,9.2,9.2,0,0,0,3.2,4.9c1.4,1.1,3.7,1.6,6.9,1.6a46.8,46.8,0,0,0,7.6-.8,45.6,45.6,0,0,0,19.8-8.7c5.8-4.4,11.9-10.7,18.3-19a4.8,4.8,0,0,1,4.4-2.5,6.4,6.4,0,0,1,4,1.5,4.4,4.4,0,0,1,1.8,3.5,3.5,3.5,0,0,1-.6,1.9c-8.3,11.1-16.6,19.3-24.8,24.7a72.2,72.2,0,0,1-24.9,10.6A33.3,33.3,0,0,1,308.7,599.5Zm7.7-37.8a111.7,111.7,0,0,0,14.7-14.4c4.2-5.1,6.2-8.9,6.2-11.4s-1.1-2.7-3.2-2.7-6.7,2-11.2,5.9a85.2,85.2,0,0,0-12.7,14.7,67.7,67.7,0,0,0-8.6,16.6C305.8,569.2,310.7,566.3,316.4,561.7Z"/><path class="cls-5" d="M359.2,593.3a23.6,23.6,0,0,1-7.8-8.2,22.6,22.6,0,0,1-2.9-11,29.9,29.9,0,0,1,.4-4.1,11,11,0,0,1,1.2-3.3l1.3-1.9c7.2-9.2,13-17,17.2-23.6a116,116,0,0,0,11.1-22.6,9.3,9.3,0,0,1,4.2-5.5,10.7,10.7,0,0,1,6.3-2,7.6,7.6,0,0,1,4.4,1.2,3.9,3.9,0,0,1,1.7,3.3,6.7,6.7,0,0,1-.3,1.8,29.8,29.8,0,0,0-.3,3.3,27.2,27.2,0,0,0,.9,6.9c.6,2.3,1.6,5.2,2.9,8.8s2.7,8.3,3.5,11.4a41.9,41.9,0,0,1,1.2,10.2,30.3,30.3,0,0,1-.6,6.2,39.5,39.5,0,0,1-6.4,16.1A38.5,38.5,0,0,1,385.1,592a29.8,29.8,0,0,1-15.6,4.3A19.5,19.5,0,0,1,359.2,593.3Zm25.9-13.5a34.3,34.3,0,0,0,7.6-16.6,28,28,0,0,0,.6-6.1,44.2,44.2,0,0,0-1.9-13.1,73.5,73.5,0,0,0-3.4-9.9q-1.5-3.6-1.8-4.5A113.8,113.8,0,0,1,375.9,549a195.3,195.3,0,0,1-16,22,14.7,14.7,0,0,0-.2,2.5c0,4.4,1.2,7.7,3.6,10a12.4,12.4,0,0,0,8.6,3.4C376.7,586.9,381.1,584.5,385.1,579.8Z"/><path class="cls-5" d="M412.5,591.1c-3.7-3.8-5.6-9.1-5.6-16,0-4.2,4.4-16.5,13.2-37.1a6.6,6.6,0,0,1-4.1-1.6,5,5,0,0,1-1.5-3.7,6.3,6.3,0,0,1,2.6-4.8c1.8-1.4,4.3-2,7.6-2h.6c4.6-10.3,10.1-22,16.4-35s10.9-22.3,13.8-27.8a12.4,12.4,0,0,1,3.4-4.4,6.4,6.4,0,0,1,3.8-1.5,4.5,4.5,0,0,1,3.4,1.7,6.9,6.9,0,0,1,1.4,4.3,13.8,13.8,0,0,1-1.6,5.7,8.8,8.8,0,0,1-.7,1.3l-1,2.2q-15.6,30.5-26.3,53.7c11.8,0,18-.1,18.7-.2a6.7,6.7,0,0,1,4.8,2.1,6.3,6.3,0,0,1,1.9,4.3,5.9,5.9,0,0,1-1.9,4.2,6.9,6.9,0,0,1-5.1,1.8c-1.5.1-6.6,0-15.4-.2h-8c-9.1,20.4-13.7,32.6-13.7,36.5a14.9,14.9,0,0,0,2.1,8c1.4,2.3,4,3.3,7.7,2.9a37.7,37.7,0,0,0,19.5-7.5c5.6-4.2,11.7-10.6,18.3-19.1a5.3,5.3,0,0,1,4.7-2.5,5.9,5.9,0,0,1,3.8,1.4,4.7,4.7,0,0,1,1.7,3.5,3.7,3.7,0,0,1-.6,2.1c-8.8,11.8-17.1,20.3-25,25.5s-16.1,8-24.4,8A19.6,19.6,0,0,1,412.5,591.1Z"/><path class="cls-1" d="M5.9,667.1a5.5,5.5,0,0,1-4.1-1.8A5.5,5.5,0,0,1,0,661.2a6,6,0,0,1,.7-2.7L29.4,602c23.2-45.9,35.7-70.5,37.4-73.6a9,9,0,0,1,8-4.3,8.5,8.5,0,0,1,4.9,1.4q2.1,1.3,2.1,3a2.8,2.8,0,0,1-.4,1.5,23.9,23.9,0,0,1,9.2-4.2,36.9,36.9,0,0,1,7.4-1c7.1,0,12.3,1.5,15.7,4.4s5.1,6.8,5.1,11.8q0,10.7-9,24a87.1,87.1,0,0,1-22.9,22.8c-9.2,6.2-18.4,9.4-27.4,9.4a16.8,16.8,0,0,1-6.2-1.3,14.3,14.3,0,0,1-5-3.6l-37,70.8C10,665.8,8.2,667.1,5.9,667.1ZM81.7,578a72.6,72.6,0,0,0,18.1-17.7c4.8-6.7,7.2-12.5,7.2-17.2a7.2,7.2,0,0,0-2-5.3c-1.4-1.3-3.5-2-6.4-2-6.9,0-13.8,3.2-20.6,9.4a75.7,75.7,0,0,0-16.8,22.3c-2.8,5.7-4.2,10.2-4.2,13.3s1.2,4.6,3.6,4.6C67.4,585.4,74.4,582.9,81.7,578Z"/><path class="cls-1" d="M140,599.9c-7.1,0-12.5-2.1-16.2-6.4a23,23,0,0,1-5.6-15.7c0-6.7,2.7-14.5,8.1-23.5A94.1,94.1,0,0,1,145.9,531c7.6-6.5,14.4-9.8,20.5-9.8s8.5,1,10.9,2.9a9.7,9.7,0,0,1,3.5,7.9c0,5-2.3,11-7.1,17.9A85.2,85.2,0,0,1,155.2,569a68.5,68.5,0,0,1-23.5,12.1,9.5,9.5,0,0,0,3.2,5c1.5,1.1,3.8,1.6,7,1.6a47.8,47.8,0,0,0,27.8-9.7c5.8-4.4,11.9-10.8,18.4-19.1a5.2,5.2,0,0,1,4.5-2.6,6.2,6.2,0,0,1,4,1.5,4.6,4.6,0,0,1,1.9,3.5,4.2,4.2,0,0,1-.6,2.1q-12.6,16.6-25.2,24.9A72.6,72.6,0,0,1,147.6,599,34.9,34.9,0,0,1,140,599.9Zm7.7-38.2a98.4,98.4,0,0,0,14.9-14.6c4.2-5.1,6.3-9,6.3-11.5s-1.1-2.8-3.3-2.8-6.7,2-11.2,6.1a80.5,80.5,0,0,0-12.9,14.9,68.9,68.9,0,0,0-8.7,16.7C137,569.3,142,566.3,147.7,561.7Z"/><path class="cls-1" d="M188.3,591.4q-5.7-5.7-5.7-16.2c0-4.2,4.4-16.7,13.3-37.5a6.1,6.1,0,0,1-4.1-1.6,5.1,5.1,0,0,1-1.5-3.7,6.5,6.5,0,0,1,2.6-4.9c1.8-1.4,4.4-2.1,7.7-2h.6c4.7-10.5,10.2-22.3,16.6-35.4s11-22.6,13.9-28.2a12.6,12.6,0,0,1,3.5-4.4A6.4,6.4,0,0,1,239,456a4.7,4.7,0,0,1,3.5,1.7,6.9,6.9,0,0,1,1.4,4.3,13.8,13.8,0,0,1-1.6,5.8l-.7,1.3-1,2.3q-15.9,30.8-26.7,54.3l75.2-.2a6.8,6.8,0,0,1,4.9,2.1,5.9,5.9,0,0,1,1.9,4.4,5.5,5.5,0,0,1-1.9,4.2,6.9,6.9,0,0,1-5.1,1.8c-1.6.1-63.1,0-72-.2h-8c-9.2,20.6-13.9,33-13.9,37a14.9,14.9,0,0,0,2.2,8.1c1.4,2.3,4,3.3,7.7,2.9a38.7,38.7,0,0,0,19.7-7.6c5.7-4.3,11.9-10.7,18.6-19.3a5.2,5.2,0,0,1,4.7-2.6,6,6,0,0,1,3.9,1.5,4.7,4.7,0,0,1,1.7,3.5,4.3,4.3,0,0,1-.6,2.2c-8.9,11.8-17.3,20.4-25.4,25.7s-16.2,8.1-24.6,8.1C197,597.2,192.1,595.3,188.3,591.4Z"/></g></g></svg>