<?xml version="1.0" encoding="utf-8"?>
<!-- Generator: Adobe Illustrator 21.0.2, SVG Export Plug-In . SVG Version: 6.00 Build 0)  -->
<svg width="400" height="400"  version="1.1" id="Layer_1" xmlns="http://www.w3.org/2000/svg" xmlns:xlink="http://www.w3.org/1999/xlink" x="0px" y="0px" viewBox="0 0 320 288" style="enable-background:new 0 0 320 288;" xml:space="preserve">

<!-- change background Gradient color below -->
<defs>
  <linearGradient id="BgGradient">
	  <stop offset="5%"  stop-color="#F7941E"/>
	  <stop offset="95%" stop-color="#F4BA27"/>
  </linearGradient>
</defs>

<!-- change border and center element color below -->
<style type="text/css">
	.border-color{stroke:#663812; fill:none; stroke-miterlimit:15; stroke-dasharray:8.2685,8.2685; }
	.center-element{fill:#FFFFFF;}
	.st1{fill:url(#SVGID_1_);}
	.st2{fill:#FFFFFF; width:50%}
	.st3{fill:#F4BA27;}
	.st4{fill:#02232D;}
	.st5{fill:#231F20;}
</style>


<g>
<circle class="border-color" cx="151" cy="147" r="50">
<animateTransform attributeName="transform"
	attributeType="XML"
	type="rotate"
	from="0 151 147"
	to="360 151 147"
	dur="8s"
	repeatCount="indefinite" />
</circle>
</g>

<circle fill="url(#BgGradient)" cx="151" cy="147" r="40"/>
<g>
	<path class="st2" d="M128.8,138.4c-0.6,0.7-0.9,1.6-0.8,3c0.1,2.1,0.5,4.3,1,5.9c0.3,0.9,0.6,1.6,0.9,2.1c0.2,0.3,0.5,0.7,0.8,0.7
		c0.2,0,0.4-0.1,0.6-0.3c0.9-0.7,1.3-2.1,1.8-3.8c0.2-0.8,0.5-1.7,0.9-2.7c1.2-3.1,2.7-5,3.7-6c-1.1,0-2.9,0-4.7,0
		C130.9,137.2,129.6,137.6,128.8,138.4z"/>
	<path class="st2" d="M166.7,137.2c-1.8,0-3.5,0-4.7,0c1,1,2.5,2.8,3.7,6c0.4,1,0.6,1.9,0.9,2.7c0.5,1.7,0.9,3.1,1.8,3.8
		c0.2,0.2,0.4,0.3,0.6,0.3c0,0,0,0,0,0c0.3,0,0.6-0.4,0.8-0.7c0.3-0.5,0.6-1.2,0.9-2.1c0.5-1.6,0.8-3.8,1-5.9c0.1-1.3-0.2-2.3-0.8-3
		C170.2,137.6,168.8,137.2,166.7,137.2z"/>
	<path class="st3" d="M160.7,137.4l-1.5,1.5c1,0.4,1.9,0.9,2.6,1.4c1.1,0.8,1.9,1.8,2.4,3l0.1-0.9
		C162.9,139.4,161.3,138,160.7,137.4z"/>
	<path class="st3" d="M137.9,138.6c-0.7,0.8-1.6,2-2.4,3.9l0.1,0.9c0.5-1.2,1.3-2.2,2.4-3c0.7-0.6,1.6-1.1,2.6-1.4l-1.5-1.5
		C138.8,137.7,138.4,138,137.9,138.6z"/>
	<path class="st2" d="M138.6,141.2c-1.8,1.4-2.7,3.3-2.7,5.8c0,2.8,0.9,4.6,2,6.7c0.9,1.7,1.8,3.5,2.4,6.1c0,0,0.1-0.1,0.1-0.1
		c0.6-0.7,1.4-1.3,2.6-2.1c0.1-0.1,0.2-0.2,0.3-0.2c0.1-0.1,0.2-0.2,0.4-0.2c0.7-0.4,1.4-0.9,2.1-2.3c0.8-1.7,1.2-4.3,1.3-7.9
		c0.1-4.2-1.5-7.3-1.8-7.9C142.4,139.3,140.2,140.1,138.6,141.2z"/>
	<path class="st2" d="M161.1,141.2c-1.5-1.2-3.7-1.9-6.6-2.3c-0.1,0.3-0.5,1-0.9,2.1c-0.4,1.3-0.9,3.3-0.9,5.8
		c0.1,3.6,0.5,6.2,1.3,7.9c0.6,1.4,1.4,1.9,2.1,2.3c0.1,0.1,0.2,0.2,0.4,0.2c0.1,0.1,0.2,0.2,0.3,0.2c1.2,0.8,2,1.4,2.6,2.1
		c0,0,0.1,0.1,0.1,0.1c0.6-2.6,1.5-4.4,2.4-6.1c1.1-2.1,2.1-3.9,2-6.7C163.8,144.5,162.9,142.6,161.1,141.2z"/>
	<path class="st2" d="M159.2,161.7c-0.2-1.4-1.1-2.1-2.9-3.4c-0.1-0.1-0.2-0.2-0.3-0.2c-0.1-0.1-0.2-0.1-0.3-0.2
		c-0.7-0.5-1.7-1.1-2.4-2.7c-0.8-1.8-1.3-4.5-1.4-8.3c-0.1-2.6,0.5-4.8,0.9-6.2c0.3-0.8,0.6-1.5,0.8-1.9c-1.1-0.1-2.3-0.2-3.6-0.2
		c-1.3,0-2.5,0.1-3.6,0.2c0.2,0.4,0.5,1.1,0.8,1.9c0.5,1.4,1,3.6,0.9,6.2c-0.1,3.8-0.5,6.5-1.4,8.3c-0.8,1.6-1.7,2.2-2.4,2.7
		c-0.1,0.1-0.2,0.2-0.3,0.2c-0.1,0.1-0.2,0.2-0.3,0.2c-1.8,1.3-2.7,1.9-2.9,3.4c0,0.1,0,0.1,0,0.2c0,0.2,0,0.4,0,0.7
		c0,1,0.2,1.9,0.7,2.6c0.4,0.7,1.1,1.3,1.9,1.7c1.6,0.9,3.8,1.3,6.7,1.3s5.1-0.4,6.7-1.3c0.8-0.5,1.5-1,1.9-1.7
		c0.5-0.7,0.7-1.6,0.7-2.6c0-0.2,0-0.5,0-0.7C159.2,161.9,159.1,161.8,159.2,161.7z"/>
	<path class="st3" d="M158.8,147.1c-2.6,0-4.8,2.1-4.8,4.6s2.1,4.6,4.8,4.6c0.7,0,1.3-0.1,1.9-0.4c0.4-0.8,0.7-1.5,1.1-2.2
		c0.6-1.1,1.2-2.2,1.5-3.4C162.8,148.5,161,147.1,158.8,147.1z"/>
	<g>
		<g>
			<g>
				<path class="st4" d="M142.2,149.1c-1.5,0-2.8,1.2-2.8,2.8s1.2,2.8,2.8,2.8s2.8-1.2,2.8-2.8S143.8,149.1,142.2,149.1z
					 M142.2,153.1c-0.7,0-1.3-0.6-1.3-1.3c0-0.7,0.6-1.3,1.3-1.3c0.7,0,1.3,0.6,1.3,1.3C143.5,152.5,142.9,153.1,142.2,153.1z"/>
			</g>
			<g>
				<g>
					<path class="st2" d="M157.5,149.8c-1.1,0-2,0.9-2,2s0.9,2,2,2c1.1,0,2-0.9,2-2S158.7,149.8,157.5,149.8z"/>
					<path class="st4" d="M157.5,149.1c-1.5,0-2.8,1.2-2.8,2.8s1.2,2.8,2.8,2.8c1.5,0,2.8-1.2,2.8-2.8S159.1,149.1,157.5,149.1z
						 M157.5,153.1c-0.7,0-1.3-0.6-1.3-1.3c0-0.7,0.6-1.3,1.3-1.3c0.7,0,1.3,0.6,1.3,1.3C158.8,152.5,158.2,153.1,157.5,153.1z"/>
				</g>
			</g>
		</g>
		<path class="st4" d="M143.2,151.1c-0.5,0-0.9,0.4-0.9,0.9c0,0.5,0.4,0.9,0.9,0.9c0.5,0,0.9-0.4,0.9-0.9
			C144.2,151.5,143.8,151.1,143.2,151.1z"/>
		<path class="st4" d="M158.5,151.1c-0.5,0-0.9,0.4-0.9,0.9c0,0.5,0.4,0.9,0.9,0.9c0.5,0,0.9-0.4,0.9-0.9
			C159.5,151.5,159.1,151.1,158.5,151.1z"/>
	</g>
	<g>
		<g>
			<g>
				<g>
					<path class="st3" d="M149.9,158.6c-1.7,0-3.1,0.3-3.1,1.4c0,0.6,0.7,1.1,1.3,1.7c0.5,0.5,1,0.9,1.8,0.9s1.2-0.5,1.8-0.9
						c0.6-0.5,1.3-1.1,1.3-1.7C153,158.9,151.6,158.6,149.9,158.6z"/>
					<path class="st4" d="M149.9,157.8c-0.9,0-3.8,0-3.8,2.1c0,0.9,0.8,1.6,1.5,2.2l0.1,0.1c0.1,0.1,0.1,0.1,0.2,0.2
						c0.5,0.4,1.1,0.9,2,0.9c1,0,1.5-0.5,2-0.9c0.1-0.1,0.1-0.1,0.2-0.2l0.1-0.1c0.7-0.6,1.5-1.3,1.5-2.2
						C153.7,157.8,150.8,157.8,149.9,157.8z M151.2,161L151.2,161c-0.1,0.1-0.2,0.2-0.3,0.2c-0.4,0.4-0.7,0.6-1.1,0.6
						s-0.6-0.2-1.1-0.6c-0.1-0.1-0.1-0.1-0.2-0.2l-0.1-0.1c-0.3-0.3-1-0.8-1-1c0-0.4,0.9-0.6,2.3-0.6s2.3,0.2,2.3,0.6
						C152.2,160.2,151.5,160.7,151.2,161z"/>
				</g>
			</g>
			<g>
				<path class="st2" d="M150.6,159.6c-0.2,0-0.4,0-0.8,0c-0.3,0-0.6,0.3-0.6,0.6c0,0.3,0.3,0.6,0.6,0.6c0.2,0,0.4,0,0.5,0
					c0.1,0.1,0.3,0.2,0.4,0.2c0,0,0,0,0,0c0.3,0,0.6-0.3,0.6-0.6C151.4,160.2,151.4,159.7,150.6,159.6z"/>
			</g>
			<g>
				<path class="st5" d="M149.9,162.5c-0.4,0-0.8,0.3-0.8,0.8c0,0.8-0.6,1.4-1.4,1.4c-0.5,0-0.9-0.2-1.2-0.6c-0.2-0.3-0.7-0.4-1-0.2
					c-0.3,0.2-0.4,0.7-0.2,1c0.5,0.8,1.4,1.3,2.4,1.3c1.6,0,2.9-1.3,2.9-2.9C150.6,162.9,150.3,162.5,149.9,162.5z"/>
				<path class="st5" d="M154.2,163.9c-0.3-0.2-0.8-0.1-1,0.2c-0.3,0.4-0.7,0.6-1.2,0.6c-0.8,0-1.4-0.6-1.4-1.4
					c0-0.4-0.3-0.8-0.8-0.8s-0.8,0.3-0.8,0.8c0,1.6,1.3,2.9,2.9,2.9c1,0,1.9-0.5,2.4-1.3C154.7,164.6,154.6,164.1,154.2,163.9z"/>
			</g>
		</g>
		<g>
			<g>
				<path class="st5" d="M143.3,145.9c-0.8-0.2-1.9-0.1-2.9,0.3c-0.9,0.4-1.7,0.9-2.2,1.5c-0.3,0.3-0.2,0.8,0.1,1.1
					c0.1,0.1,0.3,0.2,0.5,0.2c0.2,0,0.4-0.1,0.6-0.3c0.3-0.4,0.9-0.8,1.6-1.1c0.9-0.3,1.6-0.4,2-0.3c0.4,0.1,0.8-0.2,0.9-0.6
					C143.9,146.4,143.7,146,143.3,145.9z"/>
				<path class="st5" d="M159.4,146.3c-1-0.4-2.1-0.5-2.9-0.3c-0.4,0.1-0.7,0.5-0.6,0.9c0.1,0.4,0.5,0.7,0.9,0.6
					c0.4-0.1,1.1-0.1,2,0.3c0.7,0.3,1.3,0.7,1.6,1.1c0.1,0.2,0.4,0.3,0.6,0.3c0.2,0,0.3-0.1,0.5-0.2c0.3-0.3,0.4-0.7,0.1-1.1
					C161.1,147.2,160.3,146.6,159.4,146.3z"/>
			</g>
		</g>
	</g>
	<g>
		<g>
			<path class="st5" d="M149.9,137.3c-10,0-15.2,3.2-15.3,9.6c-0.1,3.1,1,5.2,2.2,7.3c1.1,2,2.2,4.1,2.6,7.5c0,0.4,0.4,0.7,0.8,0.7
				c0.4,0,0.7-0.4,0.7-0.8c-0.4-3.7-1.7-6-2.8-8.1c-1.1-2.1-2-3.8-2-6.6c0.1-5.5,4.6-8.2,13.8-8.2c9.2,0,13.7,2.7,13.8,8.2
				c0,2.8-0.9,4.5-2,6.6c-1.1,2.1-2.3,4.4-2.8,8.1c0,0.4,0.2,0.8,0.7,0.8c0,0,0.1,0,0.1,0c0.4,0,0.7-0.3,0.7-0.7
				c0.4-3.4,1.5-5.5,2.6-7.5c1.1-2.1,2.2-4.2,2.2-7.3C165,140.6,159.9,137.3,149.9,137.3z"/>
			<g>
				<path class="st5" d="M149.9,168c-4.2,0-9.1-0.9-9.1-5.4c0-2,0.7-2.5,2.9-4.1l0.3-0.2c0.1-0.1,0.2-0.1,0.3-0.2
					c2-1.3,3.7-3.1,3.9-11.2c0.1-5.1-1.9-8.6-2-8.7c-0.2-0.4-0.7-0.5-1-0.3c-0.4,0.2-0.5,0.7-0.3,1c0,0,1.9,3.3,1.8,7.9
					c-0.2,8-1.9,9.1-3.2,10c-0.1,0.1-0.3,0.2-0.4,0.3l-0.3,0.2c-2.3,1.6-3.5,2.5-3.5,5.3c0,4.5,3.8,6.9,10.6,6.9
					c0.4,0,0.8-0.3,0.8-0.8C150.6,168.4,150.3,168,149.9,168z"/>
				<path class="st5" d="M156.9,157.3l-0.3-0.2c-0.1-0.1-0.2-0.2-0.4-0.3c-1.3-0.9-3.1-2-3.2-10c-0.1-4.6,1.8-7.9,1.8-7.9
					c0.2-0.4,0.1-0.8-0.3-1c-0.4-0.2-0.8-0.1-1,0.3c-0.1,0.1-2.1,3.7-2,8.7c0.2,8.1,1.9,9.9,3.9,11.2c0.1,0.1,0.2,0.1,0.3,0.2
					l0.3,0.2c2.2,1.5,2.9,2,2.9,4.1c0,4.5-4.9,5.4-9.1,5.4c-0.4,0-0.8,0.3-0.8,0.8c0,0.4,0.3,0.8,0.8,0.8c6.8,0,10.6-2.5,10.6-6.9
					C160.5,159.8,159.2,158.9,156.9,157.3z"/>
			</g>
		</g>
		<g>
			<g>
				<g>
					<path class="st5" d="M139.2,136c0,0-2.9,0-6.1,0c-1.6,0-3.8,0.2-5.1,1.6c-0.9,0.9-1.2,2.2-1.1,3.9c0.1,1,0.7,9.8,4,9.8
						c0.5,0,1-0.2,1.4-0.6c1.2-1,1.7-2.6,2.2-4.4c0.2-0.8,0.5-1.7,0.9-2.6c1.8-4.7,4.3-6.3,4.3-6.3c0.3-0.2,0.4-0.5,0.4-0.8
						C139.8,136.3,139.5,136,139.2,136z M133.8,143.2c-0.4,1-0.6,1.9-0.9,2.7c-0.5,1.7-0.9,3-1.7,3.7c-0.2,0.1-0.3,0.2-0.5,0.2
						c-0.8,0-2.2-3.3-2.5-8.4c-0.1-1.3,0.2-2.2,0.7-2.8c0.7-0.8,2-1.1,4-1.1c1.6,0,3,0,4.1,0C136.2,138.6,134.9,140.4,133.8,143.2z"
						/>
					<path class="st5" d="M135.7,142.3c0-0.4-0.4-0.7-0.8-0.7c-0.4,0-0.7,0.4-0.7,0.8l0.4,3.2c0,0.4,0.4,0.7,0.7,0.7
						c0,0,0.1,0,0.1,0c0.4,0,0.7-0.4,0.7-0.8L135.7,142.3z"/>
					<path class="st5" d="M139.7,136.2c-0.3-0.3-0.8-0.3-1.1,0c-0.3,0.3-0.3,0.8,0,1.1l2.3,2.3c0.1,0.1,0.3,0.2,0.5,0.2
						c0.2,0,0.4-0.1,0.5-0.2c0.3-0.3,0.3-0.8,0-1.1L139.7,136.2z"/>
				</g>
			</g>
			<g>
				<g>
					<path class="st5" d="M166.7,136c-3.2,0-6.1,0-6.1,0c-0.3,0-0.6,0.2-0.7,0.6c-0.1,0.3,0.1,0.7,0.4,0.8c0,0,2.5,1.5,4.3,6.3
						c0.3,0.9,0.6,1.8,0.9,2.6c0.6,1.9,1,3.5,2.2,4.4c0.5,0.4,0.9,0.6,1.4,0.6c0,0,0,0,0,0c3.3,0,3.9-8.8,4-9.8
						c0.1-1.7-0.3-3-1.1-3.9C170.5,136.1,168.3,136,166.7,136z M171.5,141.4c-0.3,5.1-1.7,8.4-2.5,8.4c-0.1,0-0.3-0.1-0.5-0.2
						c-0.8-0.7-1.2-2-1.7-3.7c-0.2-0.8-0.5-1.8-0.9-2.7c-1.1-2.8-2.4-4.6-3.4-5.7c1.1,0,2.6,0,4.1,0c2,0,3.3,0.4,4,1.1
						C171.3,139.2,171.6,140.1,171.5,141.4z"/>
					<path class="st5" d="M164.9,141.7c-0.4,0-0.8,0.2-0.8,0.7l-0.4,3.2c0,0.4,0.2,0.8,0.7,0.8c0,0,0.1,0,0.1,0
						c0.4,0,0.7-0.3,0.7-0.7l0.4-3.2C165.6,142.1,165.3,141.7,164.9,141.7z"/>
					<path class="st5" d="M160.1,136.2l-2.3,2.3c-0.3,0.3-0.3,0.8,0,1.1c0.1,0.2,0.3,0.2,0.5,0.2c0.2,0,0.4-0.1,0.5-0.2l2.3-2.3
						c0.3-0.3,0.3-0.8,0-1.1C160.9,136,160.4,135.9,160.1,136.2z"/>
				</g>
			</g>
		</g>
	</g>
	<animateTransform attributeName="transform"
		attributeType="XML"
		type="translate"
		dur="1s"
		values="0,5;0,-5;0,5"
		repeatCount="indefinite"/>
</g>


</svg>