<?xml version="1.0" standalone="no"?>
<!DOCTYPE svg PUBLIC "-//W3C//DTD SVG 20010904//EN"
 "http://www.w3.org/TR/2001/REC-SVG-20010904/DTD/svg10.dtd">
<svg version="1.0" xmlns="http://www.w3.org/2000/svg"
 width="1726.000000pt" height="1726.000000pt" viewBox="0 0 1726.000000 1726.000000"
 preserveAspectRatio="xMidYMid meet">
<metadata>
Created by potrace 1.14, written by Peter Selinger 2001-2017
</metadata>
<g transform="translate(0.000000,1726.000000) scale(0.100000,-0.100000)"
fill="#000000" stroke="none">
<path d="M10169 17006 c-149 -40 -258 -172 -283 -345 -7 -48 -21 -92 -38 -121
-91 -155 -72 -351 46 -478 97 -104 236 -136 403 -93 138 36 254 22 473 -54
182 -63 219 -88 362 -243 96 -103 208 -144 337 -122 169 28 306 178 318 347 4
52 12 79 34 113 106 170 82 382 -58 510 -102 93 -220 114 -408 70 -91 -21
-106 -22 -181 -12 -158 23 -394 108 -496 179 -21 14 -63 56 -94 94 -115 141
-263 196 -415 155z m134 -338 c12 -13 40 -44 61 -71 95 -117 293 -225 545
-297 219 -64 364 -72 535 -31 77 19 78 19 98 -1 27 -27 17 -64 -26 -103 -56
-49 -69 -87 -62 -170 7 -79 3 -101 -24 -115 -28 -15 -43 -5 -96 62 -92 114
-225 201 -419 273 -250 93 -465 124 -625 90 -108 -24 -150 -25 -163 -4 -16 25
0 66 38 100 51 47 71 107 57 169 -12 52 -9 74 16 103 20 23 38 22 65 -5z"/>
<path d="M11925 15568 c-261 -29 -582 -141 -785 -272 l-71 -46 -77 24 c-189
59 -423 95 -682 102 -170 5 -176 5 -214 -18 -59 -34 -76 -71 -88 -190 -17
-166 -5 -614 21 -792 26 -177 75 -374 125 -509 l37 -98 -20 -122 c-67 -400
-53 -770 40 -1053 115 -350 369 -595 744 -717 273 -89 522 -119 1000 -119 518
0 841 36 1134 128 428 134 696 390 806 770 49 169 59 260 59 514 0 244 -12
369 -55 567 l-20 93 30 87 c104 305 137 568 128 1011 -9 391 -15 423 -98 481
-33 23 -38 23 -179 18 -250 -10 -509 -53 -703 -119 l-88 -29 -59 36 c-156 95
-394 185 -590 224 -94 18 -133 23 -275 35 -22 2 -76 -1 -120 -6z m340 -348
c50 -11 139 -36 198 -57 114 -39 288 -121 294 -140 2 -6 -25 -34 -61 -62 -142
-113 -254 -266 -365 -496 -75 -155 -122 -217 -179 -236 -19 -6 -79 -12 -132
-12 -154 -1 -187 27 -300 253 -101 203 -224 360 -370 471 -38 29 -67 56 -64
61 11 17 154 94 243 130 277 113 502 140 736 88z m1449 -166 c15 -115 1 -540
-22 -652 -7 -32 -9 -30 -67 85 -72 140 -206 347 -298 458 -36 44 -63 83 -59
87 15 14 316 64 403 67 36 1 36 0 43 -45z m-3197 -15 c54 -6 137 -18 185 -27
l88 -17 -57 -70 c-110 -136 -242 -355 -322 -532 -24 -52 -42 -82 -45 -73 -16
45 -38 294 -43 498 l-6 232 51 0 c28 0 95 -5 149 -11z m2572 -316 c243 -305
446 -760 511 -1147 42 -253 47 -488 14 -691 -67 -416 -323 -649 -816 -744
-230 -44 -389 -55 -818 -56 -334 0 -429 3 -542 18 -607 80 -883 301 -964 772
-26 148 -23 464 5 651 61 403 244 845 478 1156 60 79 68 86 87 76 89 -47 215
-160 281 -253 24 -33 80 -129 124 -214 96 -182 136 -238 214 -296 104 -79 237
-112 412 -102 173 10 287 59 384 163 47 50 78 99 147 236 106 210 146 272 238
363 69 68 158 135 180 135 7 0 36 -30 65 -67z"/>
<path d="M10965 13647 c-139 -63 -139 -275 -1 -338 158 -72 318 85 248 243
-29 67 -80 101 -156 105 -37 2 -73 -2 -91 -10z"/>
<path d="M12915 13644 c-73 -37 -112 -109 -103 -189 20 -177 255 -225 349 -71
23 38 26 134 5 174 -19 36 -65 78 -99 91 -41 16 -117 13 -152 -5z"/>
<path d="M11954 13271 c-121 -19 -192 -64 -230 -144 -50 -107 -21 -204 90
-302 58 -52 66 -63 66 -95 0 -67 -61 -117 -132 -107 -29 4 -53 18 -92 55 -57
54 -99 69 -161 58 -40 -8 -90 -46 -110 -87 -21 -39 -19 -113 4 -157 23 -45 90
-109 152 -145 136 -80 333 -74 466 14 l42 27 81 -41 82 -42 122 0 c121 0 123
0 198 38 92 45 181 134 198 199 29 107 -45 208 -153 208 -59 0 -79 -10 -137
-66 -25 -24 -59 -48 -75 -52 -69 -20 -145 36 -145 105 0 31 8 43 64 94 79 73
106 125 106 203 0 105 -66 189 -172 221 -58 17 -200 26 -264 16z"/>
<path d="M2070 13555 c-403 -59 -645 -213 -771 -492 -60 -131 -74 -215 -73
-448 0 -379 83 -909 195 -1262 109 -339 240 -538 406 -615 59 -28 78 -32 148
-31 45 0 99 7 123 15 145 53 331 233 507 492 38 55 61 82 66 74 3 -7 9 -44 13
-83 16 -160 72 -373 153 -570 24 -60 101 -220 170 -355 208 -402 241 -469 294
-594 98 -234 158 -433 204 -681 20 -109 24 -162 24 -315 -1 -210 16 -321 71
-473 80 -219 261 -422 505 -565 359 -211 1009 -323 1645 -283 1060 66 1638
453 1709 1146 6 55 10 168 9 250 -2 135 1 166 29 300 77 366 170 604 431 1103
76 147 160 312 184 367 100 220 164 431 188 616 20 154 17 152 79 63 115 -164
290 -354 395 -429 125 -89 277 -105 404 -44 58 29 155 119 204 192 158 232
277 646 355 1227 22 163 26 236 27 440 0 224 -2 252 -22 325 -97 349 -320 534
-749 622 -66 13 -189 16 -808 20 -518 3 -741 1 -768 -7 -21 -6 -57 -31 -85
-58 -26 -27 -118 -117 -204 -201 l-157 -153 -148 36 c-387 93 -806 136 -1330
136 -518 0 -939 -43 -1327 -137 l-149 -35 -196 195 c-125 125 -209 202 -233
212 -33 13 -129 15 -735 14 -502 -1 -722 -5 -783 -14z m821 -315 l328 0 -45
-80 c-122 -221 -250 -504 -398 -880 -207 -523 -431 -913 -656 -1141 -95 -96
-129 -115 -168 -95 -148 76 -326 683 -387 1320 -36 382 -8 550 116 681 83 87
189 138 359 172 95 18 318 33 434 27 49 -2 237 -4 417 -4z m6002 -16 c330 -45
488 -171 538 -429 31 -155 -9 -616 -86 -986 -83 -406 -216 -733 -312 -770 -34
-13 -64 6 -156 95 -135 134 -269 317 -402 551 -99 174 -167 323 -298 652 -129
323 -245 585 -343 772 -35 68 -64 125 -64 127 0 5 705 10 875 6 77 -2 188 -10
248 -18z m-5279 -143 l59 -59 -94 -47 c-52 -26 -114 -59 -138 -73 l-44 -25 13
24 c39 75 134 239 139 239 4 0 33 -27 65 -59z m3895 -65 c34 -62 61 -116 61
-119 0 -3 -31 12 -70 33 -38 22 -95 51 -127 65 l-57 26 59 59 c32 32 62 57 66
54 4 -2 35 -56 68 -118z m-1551 -32 c45 -4 82 -11 82 -16 0 -6 -20 -60 -44
-121 -110 -279 -187 -612 -216 -927 -29 -331 4 -967 70 -1341 28 -157 83 -361
126 -472 118 -299 251 -458 564 -672 247 -168 398 -284 460 -352 109 -119 147
-254 138 -488 -8 -178 -56 -314 -165 -457 -168 -221 -518 -370 -1008 -430
-176 -21 -803 -18 -975 5 -463 62 -777 196 -958 409 -74 87 -138 223 -164 345
-17 81 -19 121 -15 228 12 287 74 372 472 652 99 70 215 151 258 182 96 68
232 208 291 298 211 327 318 815 345 1565 20 571 -48 1006 -231 1476 -22 57
-38 105 -36 108 20 20 781 26 1006 8z m-1310 -148 c92 -211 166 -460 207 -701
39 -227 49 -383 42 -660 -18 -723 -118 -1206 -307 -1485 -60 -89 -143 -163
-309 -276 -196 -134 -357 -254 -441 -327 -35 -31 -67 -53 -71 -49 -3 4 -23 63
-43 130 -71 241 -162 448 -385 877 -78 149 -163 323 -191 387 -112 265 -160
493 -160 761 0 408 109 690 359 929 203 195 484 339 845 433 134 35 383 85
401 81 6 -2 29 -46 53 -100z m1934 68 c710 -137 1176 -448 1338 -891 53 -145
71 -249 77 -445 7 -208 -6 -350 -47 -518 -51 -209 -108 -341 -312 -733 -213
-406 -307 -624 -384 -887 -15 -52 -29 -97 -31 -99 -1 -2 -33 23 -71 56 -77 69
-236 187 -459 340 -170 117 -258 202 -322 311 -178 299 -274 837 -275 1542 0
220 4 314 17 410 45 320 129 621 239 862 40 86 41 87 72 82 17 -3 88 -16 158
-30z"/>
<path d="M5285 9573 c-218 -17 -368 -53 -488 -115 -146 -76 -226 -183 -247
-326 -24 -170 47 -317 233 -485 222 -200 399 -333 474 -358 l35 -11 -29 -30
c-40 -44 -99 -68 -163 -68 -74 0 -128 27 -179 88 -69 81 -140 100 -221 60 -78
-40 -110 -131 -75 -214 8 -20 45 -66 82 -103 113 -111 236 -161 395 -161 135
0 262 45 355 125 l37 32 51 -40 c57 -45 133 -83 208 -103 69 -18 209 -18 282
1 120 32 255 127 317 224 66 104 10 235 -109 257 -58 11 -108 -11 -166 -73
-29 -30 -70 -64 -92 -74 -54 -25 -137 -25 -190 1 -39 19 -93 66 -84 73 2 2 36
21 74 41 81 44 100 59 297 224 191 160 268 244 321 351 41 82 42 87 41 180 -1
74 -6 109 -23 154 -78 200 -300 314 -676 346 -110 10 -364 12 -460 4z m430
-333 c191 -18 299 -48 360 -101 87 -77 49 -136 -255 -389 -178 -148 -226 -174
-325 -174 -99 0 -147 26 -330 180 -245 205 -303 272 -289 328 16 64 121 117
282 141 168 26 379 31 557 15z"/>
<path d="M5497 9176 c-47 -17 -61 -29 -88 -73 -17 -27 -20 -46 -17 -92 7 -101
65 -151 175 -151 39 0 72 -7 98 -20 51 -26 90 -25 145 3 81 40 111 135 71 222
-23 50 -43 68 -106 96 -64 28 -220 37 -278 15z"/>
<path d="M3930 11841 c-222 -49 -431 -160 -558 -296 -71 -75 -89 -122 -72
-185 23 -84 84 -125 175 -118 51 4 58 8 129 76 88 83 185 140 316 184 90 30
104 32 245 32 128 1 155 4 178 19 44 29 67 75 67 136 0 67 -24 108 -82 141
-39 22 -56 25 -178 27 -103 2 -155 -2 -220 -16z"/>
<path d="M3891 11314 c-230 -62 -401 -290 -401 -534 0 -134 65 -285 165 -385
105 -105 229 -155 385 -155 239 0 428 131 517 357 24 60 27 82 27 188 0 106
-3 128 -27 188 -66 169 -188 285 -356 337 -76 24 -228 26 -310 4z m249 -336
l45 -20 -36 -18 c-68 -35 -119 -115 -119 -185 0 -43 23 -98 56 -135 l36 -39
-29 -6 c-15 -4 -33 -8 -40 -10 -24 -8 -113 22 -149 50 -44 33 -84 115 -84 170
0 56 40 137 85 170 42 33 117 55 160 48 17 -3 50 -14 75 -25z"/>
<path d="M6707 11846 c-79 -22 -127 -80 -127 -156 0 -54 24 -105 64 -133 29
-20 42 -22 176 -22 173 -1 229 -14 377 -85 79 -39 120 -66 182 -125 87 -81
107 -90 183 -83 44 5 57 11 89 46 71 75 63 158 -24 250 -142 150 -358 263
-587 306 -98 19 -266 20 -333 2z"/>
<path d="M6800 11314 c-141 -38 -273 -150 -340 -288 -134 -278 -24 -597 257
-740 98 -50 279 -62 393 -27 232 72 390 285 390 526 0 241 -158 454 -389 525
-77 24 -229 26 -311 4z m250 -336 l45 -20 -36 -18 c-71 -37 -119 -115 -119
-193 0 -40 26 -97 62 -134 l30 -31 -23 -8 c-141 -44 -298 93 -274 241 14 88
78 158 164 181 53 14 88 9 151 -18z"/>
<path d="M12595 10216 c-195 -48 -317 -230 -302 -451 8 -131 60 -231 181 -350
131 -129 376 -275 463 -275 124 0 458 233 563 393 95 145 106 337 29 489 -29
58 -114 139 -174 167 -111 52 -259 50 -367 -5 l-51 -26 -51 25 c-94 46 -194
57 -291 33z m149 -327 c14 -7 32 -27 41 -45 18 -38 66 -81 101 -90 14 -4 48
-4 76 -2 46 5 56 10 90 49 84 98 85 99 122 99 22 0 43 -7 55 -19 23 -23 36
-80 27 -114 -15 -63 -132 -175 -257 -249 l-63 -38 -45 26 c-126 73 -249 186
-272 252 -12 35 2 102 27 127 18 18 63 20 98 4z"/>
<path d="M16257 9560 c-133 -34 -244 -150 -282 -295 -21 -81 -19 -190 4 -264
53 -170 242 -352 499 -481 119 -59 153 -57 279 10 254 135 415 290 475 455 61
170 -6 416 -139 508 -133 91 -320 103 -450 27 l-33 -19 -66 31 c-56 26 -80 31
-158 34 -50 2 -108 -1 -129 -6z m168 -347 c98 -112 110 -121 158 -128 60 -9
131 23 164 75 42 66 48 71 89 77 34 4 45 1 62 -17 29 -31 37 -89 18 -134 -9
-21 -40 -61 -70 -91 -60 -58 -214 -165 -238 -165 -45 0 -256 168 -299 236 -29
47 -23 129 11 156 33 27 77 23 105 -9z"/>
<path d="M595 7475 c-16 -9 -42 -30 -56 -47 l-26 -31 -45 35 c-80 61 -164 59
-227 -6 -65 -67 -62 -162 8 -230 l39 -38 -34 -44 c-18 -25 -36 -60 -40 -79
-19 -104 56 -195 160 -195 50 0 79 14 120 56 l36 37 26 -19 c78 -55 77 -55
143 -51 59 3 66 6 101 44 66 70 61 177 -11 237 -16 14 -29 27 -29 31 0 3 16
28 35 56 27 40 35 61 35 96 0 52 -28 108 -68 138 -35 26 -127 32 -167 10z"/>
<path d="M11656 6539 c-203 -50 -378 -186 -466 -363 -70 -140 -8 -266 131
-266 73 0 113 27 157 105 63 113 139 173 250 195 124 25 239 -10 343 -106 93
-86 176 -94 249 -25 48 46 65 103 50 164 -9 32 -29 59 -90 119 -171 166 -402
232 -624 177z"/>
<path d="M13810 6539 c-136 -35 -247 -97 -341 -191 -81 -81 -97 -144 -58 -224
33 -70 111 -105 187 -84 27 7 60 29 98 67 136 132 309 149 470 45 39 -25 71
-56 90 -86 16 -26 38 -61 49 -79 65 -102 204 -105 278 -6 32 44 34 108 3 174
-66 145 -174 254 -328 331 -147 74 -298 92 -448 53z"/>
<path d="M7170 5754 c-410 -36 -743 -125 -1061 -285 -81 -40 -98 -46 -110 -34
-25 25 -165 95 -238 120 -230 78 -721 138 -869 106 -169 -36 -309 -175 -359
-356 -22 -82 -33 -404 -23 -650 16 -356 56 -627 119 -804 27 -79 28 -84 14
-129 -41 -136 -87 -389 -98 -537 -14 -203 -14 -245 -5 -403 51 -845 450 -1588
1126 -2098 616 -464 1397 -651 2169 -519 275 47 492 118 760 250 639 313 1133
853 1389 1517 208 541 242 1154 95 1720 l-31 118 31 90 c39 117 75 304 98 510
22 211 26 774 4 888 -27 148 -132 302 -247 360 -90 46 -149 55 -304 49 -394
-17 -687 -86 -902 -214 l-47 -27 -38 21 c-79 44 -294 132 -430 176 -157 51
-319 87 -493 112 -110 15 -457 27 -550 19z m20 -909 c0 -626 -1 -609 56 -654
36 -28 96 -43 141 -35 47 9 110 66 123 112 6 23 10 248 10 595 l0 557 43 0
c23 0 52 -3 65 -6 l22 -6 0 -365 c0 -398 0 -396 60 -446 35 -30 85 -42 135
-33 37 7 97 53 118 90 8 15 13 120 17 357 l5 336 90 -27 c687 -207 1267 -725
1559 -1390 37 -83 126 -338 126 -360 0 -7 -75 -10 -236 -10 -235 1 -236 1
-274 -23 -93 -62 -94 -210 -1 -273 36 -24 36 -24 302 -24 302 0 279 7 279 -86
l0 -54 -273 0 c-272 0 -272 0 -308 -24 -92 -63 -92 -209 0 -272 36 -24 36 -24
309 -24 l273 0 -3 -62 -3 -63 -265 -5 c-293 -6 -306 -8 -351 -72 -34 -47 -37
-131 -7 -182 42 -72 61 -76 326 -76 l232 0 -6 -27 c-52 -220 -194 -526 -345
-748 -600 -883 -1690 -1284 -2720 -1001 -409 112 -779 328 -1084 631 -230 228
-414 494 -530 765 -45 105 -125 336 -125 361 0 18 12 19 234 19 225 0 234 1
266 23 78 52 100 161 47 231 -53 69 -62 71 -353 74 l-262 3 -6 37 c-3 20 -6
49 -6 65 l0 27 274 0 c267 0 274 1 307 23 37 24 79 97 79 137 0 40 -42 113
-79 137 -33 22 -40 23 -309 23 l-275 0 7 61 c3 33 8 65 12 70 3 5 120 9 268 9
256 0 264 1 297 23 37 24 79 97 79 137 0 40 -42 113 -79 137 -33 22 -42 23
-267 23 -223 0 -234 1 -234 19 0 29 75 248 120 352 282 643 834 1148 1497
1369 83 27 154 50 157 50 3 0 7 -155 8 -344 3 -330 4 -346 24 -373 25 -35 98
-73 140 -73 51 0 115 40 141 90 23 43 23 47 23 401 0 403 -8 366 83 368 l47 1
0 -575z m-1842 465 c126 -18 266 -51 323 -74 27 -11 26 -12 -70 -88 -264 -211
-506 -486 -670 -766 -35 -59 -57 -88 -62 -80 -24 44 -45 587 -30 784 11 158
37 221 101 248 26 10 270 -4 408 -24z m4452 -8 c21 -20 43 -55 50 -77 17 -60
24 -462 11 -660 -14 -203 -22 -275 -30 -275 -3 0 -28 39 -54 86 -149 261 -418
569 -674 773 -51 40 -93 75 -93 76 0 2 28 13 63 24 138 46 416 88 601 90 l88
1 38 -38z"/>
<path d="M6015 3593 c-221 -79 -341 -291 -294 -515 26 -122 120 -240 237 -299
65 -33 70 -34 192 -34 117 0 129 2 183 28 32 16 85 54 117 84 225 208 164 584
-116 715 -59 27 -80 32 -168 35 -79 3 -112 0 -151 -14z m207 -342 c28 -25 33
-36 33 -75 0 -114 -146 -152 -200 -51 -57 104 78 206 167 126z"/>
<path d="M8420 3591 c-374 -120 -408 -645 -53 -814 65 -30 74 -32 188 -32 117
0 122 1 190 34 90 44 162 116 206 206 33 68 34 73 34 190 0 116 -1 122 -34
187 -80 159 -224 249 -399 247 -45 0 -100 -8 -132 -18z m183 -322 c58 -30 76
-112 37 -162 -63 -80 -192 -35 -192 67 0 78 85 130 155 95z"/>
<path d="M7103 3191 c-71 -24 -113 -59 -147 -120 -58 -108 -29 -250 77 -367
25 -28 69 -66 97 -85 49 -33 51 -35 47 -75 -10 -94 -96 -206 -197 -253 -46
-22 -69 -26 -145 -26 -76 0 -98 4 -145 26 -73 35 -122 81 -168 159 -50 84 -95
112 -170 107 -86 -6 -141 -61 -150 -147 -4 -43 0 -60 28 -115 203 -400 754
-490 1078 -175 l43 42 49 -46 c124 -116 267 -176 441 -184 122 -5 227 16 334
69 172 84 327 275 327 399 -1 98 -77 167 -174 158 -60 -6 -93 -29 -134 -94
-97 -150 -202 -211 -348 -202 -158 10 -293 128 -321 279 -6 34 -4 38 42 72 71
52 147 136 179 198 25 46 29 66 29 134 0 63 -5 89 -22 121 -62 117 -209 171
-349 129 -43 -13 -55 -13 -98 0 -65 20 -139 18 -203 -4z"/>
<path d="M16015 5577 c-17 -8 -75 -63 -129 -123 -54 -60 -109 -120 -121 -133
l-23 -24 -124 112 c-154 141 -162 145 -257 142 -46 -1 -116 -71 -126 -125 -14
-69 8 -113 98 -196 45 -41 106 -98 136 -126 l54 -51 -108 -119 c-133 -146
-145 -165 -145 -230 0 -92 66 -156 160 -156 67 0 96 21 220 161 58 66 110 120
115 120 6 0 70 -53 143 -119 140 -125 165 -139 238 -127 83 14 142 99 129 186
-8 50 -26 72 -204 234 l-85 76 20 23 c11 13 64 71 117 131 54 59 102 119 107
133 27 70 2 150 -62 197 -33 25 -113 32 -153 14z"/>
<path d="M12732 5321 c-205 -71 -209 -330 -7 -481 45 -34 45 -34 45 -97 0
-117 -65 -255 -154 -328 -95 -78 -231 -117 -341 -98 -131 23 -240 93 -306 197
-59 94 -69 106 -103 127 -98 60 -236 -22 -236 -141 0 -123 171 -331 349 -423
107 -56 192 -78 321 -84 225 -10 405 57 563 210 l70 67 61 -58 c82 -78 118
-104 203 -146 114 -57 224 -79 368 -73 95 3 136 10 200 31 197 67 359 205 446
381 26 54 31 73 26 111 -9 82 -76 144 -156 144 -72 0 -110 -26 -161 -111 -56
-93 -114 -150 -193 -189 -168 -83 -352 -56 -492 72 -81 73 -127 172 -133 282
l-4 83 79 79 c90 89 113 137 113 234 0 151 -140 253 -303 221 -44 -8 -72 -9
-97 -1 -50 15 -98 12 -158 -9z"/>
<path d="M13232 2619 c-173 -24 -305 -168 -332 -361 -31 -221 88 -413 365
-594 219 -142 272 -151 419 -75 291 152 460 332 496 530 15 83 -1 196 -39 278
-96 204 -332 284 -546 184 -60 -27 -60 -27 -90 -9 -64 39 -183 60 -273 47z
m124 -337 c12 -9 29 -31 38 -49 9 -18 33 -45 53 -60 30 -23 46 -28 94 -28 65
0 100 19 136 76 39 61 60 79 97 79 53 0 78 -27 83 -91 4 -48 1 -59 -28 -103
-36 -53 -145 -145 -233 -195 l-56 -32 -56 32 c-86 49 -199 144 -234 197 -28
41 -31 54 -28 99 6 66 28 93 77 93 20 0 46 -8 57 -18z"/>
<path d="M10035 896 c-16 -7 -47 -32 -68 -55 l-38 -42 -36 28 c-67 54 -87 63
-136 63 -165 0 -223 -192 -89 -300 l40 -32 -43 -54 c-24 -29 -47 -69 -51 -89
-19 -104 56 -195 161 -195 48 0 93 24 136 73 l36 42 44 -36 c62 -51 81 -59
136 -59 93 0 153 63 153 160 0 62 -18 96 -76 145 l-37 31 41 47 c71 82 78 159
20 232 -40 51 -127 70 -193 41z"/>
</g>
</svg>
